<svg width="306" height="56" viewBox="0 0 306 56" fill="none" xmlns="http://www.w3.org/2000/svg">
<path d="M21.9394 48.3249C14.8487 48.3249 9.48405 46.299 5.79877 42.2013C2.11349 38.1035 0.247528 32.2561 0.247528 24.613C0.247528 16.8318 2.16014 10.8463 6.03202 6.65638C9.90389 2.46651 15.4551 0.394592 22.7324 0.394592C27.6772 0.394592 32.1089 1.31544 36.074 3.1111L33.0885 11.0304C28.8901 9.41894 25.3914 8.59017 22.6857 8.59017C14.5688 8.59017 10.5103 13.8851 10.5103 24.5209C10.5103 29.7237 11.5366 33.5913 13.5425 36.2157C15.5484 38.8401 18.534 40.1293 22.4058 40.1293C26.8375 40.1293 31.0359 39.0243 35.0011 36.8603V45.4242C33.2284 46.4372 31.3158 47.1739 29.3099 47.6343C27.2574 48.0947 24.8316 48.3249 21.9394 48.3249Z" fill="black"/>
<path d="M82.9098 24.2907C82.9098 31.8416 80.9505 37.7351 77.032 41.971C73.1135 46.2069 67.6555 48.3249 60.6581 48.3249C56.2731 48.3249 52.4013 47.358 49.0425 45.3782C45.6838 43.4444 43.1181 40.6358 41.2988 36.9524C39.4795 33.315 38.5931 29.0791 38.5931 24.2446C38.5931 16.7397 40.5524 10.8923 44.4243 6.7024C48.2961 2.51252 53.8007 0.394562 60.8914 0.394562C67.6555 0.394562 73.0202 2.55856 76.9853 6.84052C80.9038 11.1685 82.9098 16.9699 82.9098 24.2907ZM48.8093 24.2907C48.8093 34.9725 52.8211 40.3135 60.7981 40.3135C68.7284 40.3135 72.647 34.9725 72.647 24.2907C72.647 13.7469 68.6818 8.45201 60.7048 8.45201C56.5064 8.45201 53.4742 9.83329 51.6082 12.5498C49.7423 15.2663 48.8093 19.1799 48.8093 24.2907Z" fill="black"/>
<path d="M112.998 0.394562C115.004 0.394562 116.637 0.532689 117.943 0.808945L116.964 9.97142C115.564 9.64912 114.071 9.46495 112.579 9.46495C108.613 9.46495 105.348 10.7541 102.876 13.3325C100.403 15.9109 99.1903 19.226 99.1903 23.3238V47.4961H89.254V1.22333H97.0444L98.8637 9.37286C100.403 6.61031 102.456 4.44631 104.928 2.78878C107.4 1.22333 110.106 0.394562 112.998 0.394562Z" fill="black"/>
<path d="M157.782 47.4962L155.869 41.4185C154.469 43.5825 152.51 45.2401 149.945 46.4832C147.379 47.7264 144.487 48.3249 141.175 48.3249C135.483 48.3249 131.238 46.9437 128.486 44.1351C125.687 41.3265 124.288 37.1366 124.288 31.4734V1.22339H134.317V29.7237C134.317 33.269 135.063 35.9395 136.51 37.6891C137.956 39.4387 140.288 40.3596 143.414 40.3596C147.612 40.3596 150.644 39.1164 152.65 36.6762C154.609 34.1899 155.589 30.0921 155.589 24.2907V1.26943H165.572V47.4962H157.782V47.4962Z" fill="black"/>
<path d="M206.623 34.3286C206.623 38.8408 204.944 42.294 201.632 44.7342C198.32 47.1745 193.515 48.3716 187.31 48.3716C181.059 48.3716 176.068 47.4508 172.289 45.563V37.0451C177.794 39.5314 182.925 40.8206 187.684 40.8206C193.795 40.8206 196.873 38.9789 196.873 35.3416C196.873 34.1905 196.547 33.1776 195.847 32.3948C195.147 31.6121 194.075 30.7833 192.488 29.9546C190.902 29.1258 188.757 28.1589 186.004 27.0999C180.593 25.028 176.954 22.9561 175.042 20.9302C173.129 18.8583 172.196 16.1878 172.196 12.9188C172.196 8.95916 173.829 5.87431 177.048 3.71031C180.266 1.50026 184.698 0.441284 190.249 0.441284C195.754 0.441284 200.979 1.54631 205.877 3.75635L202.658 11.1692C197.62 9.09729 193.375 8.08435 189.923 8.08435C184.651 8.08435 182.039 9.55771 182.039 12.5044C182.039 13.9318 182.739 15.1749 184.092 16.1878C185.444 17.2008 188.43 18.5821 193.048 20.3317C196.92 21.805 199.719 23.1403 201.492 24.3834C203.264 25.6266 204.524 27.0079 205.41 28.6193C206.297 30.2308 206.623 32.0725 206.623 34.3286Z" fill="black"/>
<path d="M211.195 45.3781C211.195 44.5494 211.428 43.9508 211.848 43.5364C212.268 43.1221 212.874 42.8918 213.714 42.8918C214.553 42.8918 215.16 43.1221 215.58 43.5825C216 44.0429 216.233 44.6415 216.233 45.4242C216.233 46.2069 216 46.8515 215.58 47.3119C215.16 47.7724 214.507 48.0026 213.714 48.0026C212.921 48.0026 212.268 47.7724 211.848 47.3119C211.428 46.8515 211.195 46.2069 211.195 45.3781Z" fill="#96CCF3"/>
<path d="M228.175 44.6416C229.155 44.6416 230.088 44.5035 231.067 44.1812V47.1279C230.647 47.3121 230.041 47.4962 229.388 47.5883C228.688 47.7264 227.988 47.7725 227.242 47.7725C223.51 47.7725 221.597 45.8387 221.597 41.9251V32.0259H219.032V30.3224L221.784 28.895L223.137 24.9814H225.563V29.0792H230.881V32.0259H225.563V41.879C225.563 42.7999 225.796 43.5366 226.262 43.951C226.776 44.4114 227.429 44.6416 228.175 44.6416Z" fill="#96CCF3"/>
<path d="M246.508 47.4963L245.575 44.9179C244.689 46.0229 243.756 46.8056 242.87 47.22C241.937 47.6344 240.77 47.8185 239.371 47.8185C237.551 47.8185 236.105 47.3121 235.079 46.3452C234.053 45.3783 233.54 43.997 233.54 42.2014C233.54 40.3136 234.239 38.8863 235.686 37.9194C237.132 36.9525 239.278 36.446 242.216 36.354L245.435 36.2619V35.295C245.435 34.0979 245.155 33.2231 244.596 32.6705C244.036 32.072 243.196 31.7957 242.03 31.7957C241.097 31.7957 240.164 31.9339 239.278 32.2101C238.391 32.4864 237.552 32.8087 236.758 33.177L235.499 30.3684C236.525 29.8619 237.598 29.4476 238.811 29.1713C240.024 28.8951 241.143 28.7569 242.216 28.7569C244.596 28.7569 246.368 29.2634 247.581 30.2763C248.794 31.2893 249.4 32.9008 249.4 35.0648V47.4502H246.508V47.4963ZM240.584 44.8258C242.03 44.8258 243.196 44.4114 244.036 43.6287C244.922 42.846 245.342 41.7409 245.342 40.3136V38.7021L242.963 38.7942C241.097 38.8403 239.744 39.1625 238.904 39.7151C238.065 40.2676 237.645 41.0963 237.645 42.2474C237.645 43.0762 237.878 43.7208 238.391 44.1351C238.858 44.5956 239.604 44.8258 240.584 44.8258Z" fill="#96CCF3"/>
<path d="M262.416 28.7569C263.209 28.7569 263.862 28.803 264.375 28.9411L264.002 32.5785C263.442 32.4403 262.835 32.3943 262.229 32.3943C260.643 32.3943 259.383 32.9008 258.357 33.9137C257.377 34.9266 256.864 36.2619 256.864 37.8734V47.4963H252.899V29.0792H255.978L256.724 32.3022C257.331 31.1972 258.17 30.3224 259.15 29.6778C260.223 29.0792 261.296 28.7569 262.416 28.7569Z" fill="#96CCF3"/>
<path d="M262.602 45.3781C262.602 44.5494 262.835 43.9508 263.255 43.5364C263.675 43.1221 264.281 42.8918 265.121 42.8918C265.961 42.8918 266.567 43.1221 266.987 43.5825C267.407 44.0429 267.64 44.6415 267.64 45.4242C267.64 46.2069 267.407 46.8515 266.987 47.3119C266.567 47.7724 265.914 48.0026 265.121 48.0026C264.328 48.0026 263.675 47.7724 263.255 47.3119C262.835 46.8055 262.602 46.2069 262.602 45.3781Z" fill="#96CCF3"/>
<path d="M289.845 29.0793V31.2433L286.673 31.8419C286.953 32.2102 287.186 32.7167 287.419 33.2692C287.606 33.8217 287.699 34.4202 287.699 35.0648C287.699 36.9526 287.046 38.472 285.693 39.531C284.387 40.636 282.521 41.1425 280.235 41.1425C279.629 41.1425 279.116 41.0964 278.603 41.0043C277.763 41.5108 277.343 42.1554 277.343 42.846C277.343 43.2604 277.53 43.5827 277.95 43.8129C278.369 44.0431 279.069 44.1352 280.142 44.1352H283.407C285.46 44.1352 287.046 44.5496 288.072 45.4244C289.099 46.2992 289.658 47.5424 289.658 49.1539C289.658 51.2258 288.772 52.8373 287.046 53.9883C285.32 55.1394 282.801 55.6919 279.489 55.6919C276.97 55.6919 275.011 55.2315 273.658 54.3567C272.305 53.4819 271.652 52.1927 271.652 50.5812C271.652 49.4301 272.025 48.5093 272.725 47.7265C273.471 46.9438 274.451 46.4374 275.757 46.1151C275.244 45.8848 274.777 45.5165 274.451 45.0561C274.124 44.5496 273.938 44.0431 273.938 43.4906C273.938 42.8 274.124 42.2014 274.544 41.741C274.917 41.2806 275.524 40.7741 276.317 40.3137C275.337 39.8993 274.544 39.2547 273.984 38.2878C273.378 37.367 273.098 36.2619 273.098 35.0188C273.098 33.039 273.751 31.4735 275.011 30.3685C276.27 29.2635 278.089 28.711 280.469 28.711C280.982 28.711 281.541 28.757 282.148 28.8031C282.708 28.8951 283.174 28.9412 283.454 29.0333H289.845V29.0793ZM275.197 50.351C275.197 51.1797 275.57 51.8243 276.363 52.2848C277.11 52.7452 278.229 52.9754 279.629 52.9754C281.775 52.9754 283.407 52.6531 284.434 52.0545C285.507 51.456 286.02 50.6272 286.02 49.6143C286.02 48.8316 285.74 48.233 285.133 47.9107C284.574 47.5884 283.501 47.4042 281.915 47.4042H278.929C277.81 47.4042 276.877 47.6805 276.223 48.187C275.524 48.7395 275.197 49.4301 275.197 50.351ZM276.877 35.0188C276.877 36.1699 277.156 37.0447 277.763 37.6893C278.369 38.2878 279.209 38.6101 280.329 38.6101C282.614 38.6101 283.781 37.413 283.781 34.9728C283.781 33.7756 283.501 32.8548 282.941 32.2102C282.381 31.5656 281.495 31.2433 280.375 31.2433C279.209 31.2433 278.369 31.5656 277.763 32.2102C277.203 32.8548 276.877 33.8217 276.877 35.0188Z" fill="#96CCF3"/>
<path d="M305.752 47.4962H291.618V45.0559L301.041 32.0719H292.178V29.0792H305.473V31.7957L296.236 44.4574H305.706V47.4962H305.752Z" fill="#96CCF3"/>
</svg>
