<?xml version="1.0" encoding="UTF-8" standalone="no"?><!-- Generator: Gravit.io --><svg xmlns="http://www.w3.org/2000/svg" xmlns:xlink="http://www.w3.org/1999/xlink" style="isolation:isolate" viewBox="0 0 246.161 46.224" width="246.161pt" height="46.224pt"><defs><clipPath id="_clipPath_SeInM5py7EChCU8Gfm85qeDtj3ejHwgG"><rect width="246.161" height="46.224"/></clipPath></defs><g clip-path="url(#_clipPath_SeInM5py7EChCU8Gfm85qeDtj3ejHwgG)"><path d=" M 200.981 28.888 L 200.981 28.888 L 200.981 28.888 Q 200.981 24.441 203.038 21.813 L 203.038 21.813 L 203.038 21.813 Q 205.094 19.185 208.487 19.185 L 208.487 19.185 L 208.487 19.185 Q 211.967 19.185 213.919 21.646 L 213.919 21.646 L 214.077 19.537 L 217.048 19.537 L 217.048 38.099 L 217.048 38.099 Q 217.048 41.791 214.859 43.918 L 214.859 43.918 L 214.859 43.918 Q 212.671 46.045 208.979 46.045 L 208.979 46.045 L 208.979 46.045 Q 206.923 46.045 204.954 45.166 L 204.954 45.166 L 204.954 45.166 Q 202.985 44.287 201.948 42.757 L 201.948 42.757 L 203.635 40.806 L 203.635 40.806 Q 205.727 43.39 208.751 43.39 L 208.751 43.39 L 208.751 43.39 Q 211.124 43.39 212.451 42.054 L 212.451 42.054 L 212.451 42.054 Q 213.778 40.718 213.778 38.293 L 213.778 38.293 L 213.778 36.658 L 213.778 36.658 Q 211.827 38.908 208.452 38.908 L 208.452 38.908 L 208.452 38.908 Q 205.112 38.908 203.047 36.218 L 203.047 36.218 L 203.047 36.218 Q 200.981 33.529 200.981 28.888 Z  M 204.251 29.257 L 204.251 29.257 L 204.251 29.257 Q 204.251 32.474 205.569 34.311 L 205.569 34.311 L 205.569 34.311 Q 206.887 36.148 209.26 36.148 L 209.26 36.148 L 209.26 36.148 Q 212.337 36.148 213.778 33.353 L 213.778 33.353 L 213.778 24.67 L 213.778 24.67 Q 212.284 21.945 209.296 21.945 L 209.296 21.945 L 209.296 21.945 Q 206.923 21.945 205.587 23.791 L 205.587 23.791 L 205.587 23.791 Q 204.251 25.636 204.251 29.257 Z  M 232.61 21.839 L 222.01 35.902 L 233.137 35.902 L 233.137 38.556 L 218.038 38.556 L 218.038 36.166 L 228.532 22.226 L 218.196 22.226 L 218.196 19.537 L 232.61 19.537 L 232.61 21.839 L 232.61 21.839 Z  M 164.079 14.931 L 167.331 14.931 L 167.331 19.537 L 170.882 19.537 L 170.882 22.05 L 167.331 22.05 L 167.331 33.845 L 167.331 33.845 Q 167.331 34.988 167.805 35.559 L 167.805 35.559 L 167.805 35.559 Q 168.28 36.13 169.423 36.13 L 169.423 36.13 L 169.423 36.13 Q 169.985 36.13 170.969 35.92 L 170.969 35.92 L 170.969 38.556 L 170.969 38.556 Q 169.686 38.908 168.473 38.908 L 168.473 38.908 L 168.473 38.908 Q 166.294 38.908 165.186 37.589 L 165.186 37.589 L 165.186 37.589 Q 164.079 36.271 164.079 33.845 L 164.079 33.845 L 164.079 22.05 L 160.616 22.05 L 160.616 19.537 L 164.079 19.537 L 164.079 14.931 L 164.079 14.931 Z  M 186.831 38.556 L 183.421 38.556 L 183.421 38.556 Q 183.139 37.994 182.964 36.552 L 182.964 36.552 L 182.964 36.552 Q 180.696 38.908 177.55 38.908 L 177.55 38.908 L 177.55 38.908 Q 174.737 38.908 172.935 37.317 L 172.935 37.317 L 172.935 37.317 Q 171.134 35.726 171.134 33.283 L 171.134 33.283 L 171.134 33.283 Q 171.134 30.312 173.392 28.669 L 173.392 28.669 L 173.392 28.669 Q 175.651 27.025 179.747 27.025 L 179.747 27.025 L 182.911 27.025 L 182.911 25.531 L 182.911 25.531 Q 182.911 23.826 181.891 22.815 L 181.891 22.815 L 181.891 22.815 Q 180.872 21.804 178.885 21.804 L 178.885 21.804 L 178.885 21.804 Q 177.145 21.804 175.967 22.683 L 175.967 22.683 L 175.967 22.683 Q 174.79 23.562 174.79 24.81 L 174.79 24.81 L 171.52 24.81 L 171.52 24.81 Q 171.52 23.386 172.531 22.059 L 172.531 22.059 L 172.531 22.059 Q 173.542 20.732 175.273 19.959 L 175.273 19.959 L 175.273 19.959 Q 177.005 19.185 179.079 19.185 L 179.079 19.185 L 179.079 19.185 Q 182.366 19.185 184.229 20.829 L 184.229 20.829 L 184.229 20.829 Q 186.092 22.472 186.163 25.355 L 186.163 25.355 L 186.163 34.109 L 186.163 34.109 Q 186.163 36.728 186.831 38.275 L 186.831 38.275 L 186.831 38.556 L 186.831 38.556 Z  M 178.024 36.078 L 178.024 36.078 L 178.024 36.078 Q 179.553 36.078 180.925 35.287 L 180.925 35.287 L 180.925 35.287 Q 182.296 34.496 182.911 33.23 L 182.911 33.23 L 182.911 29.328 L 180.362 29.328 L 180.362 29.328 Q 174.385 29.328 174.385 32.826 L 174.385 32.826 L 174.385 32.826 Q 174.385 34.355 175.405 35.216 L 175.405 35.216 L 175.405 35.216 Q 176.425 36.078 178.024 36.078 Z  M 197.454 19.431 L 197.454 22.455 L 197.454 22.455 Q 196.716 22.332 195.854 22.332 L 195.854 22.332 L 195.854 22.332 Q 192.655 22.332 191.512 25.056 L 191.512 25.056 L 191.512 38.556 L 188.26 38.556 L 188.26 19.537 L 191.425 19.537 L 191.477 21.734 L 191.477 21.734 Q 193.077 19.185 196.012 19.185 L 196.012 19.185 L 196.012 19.185 Q 196.962 19.185 197.454 19.431 L 197.454 19.431 L 197.454 19.431 Z  M 195.35 36.851 L 195.35 36.851 L 195.35 36.851 Q 195.35 36.007 195.851 35.445 L 195.851 35.445 L 195.851 35.445 Q 196.352 34.882 197.354 34.882 L 197.354 34.882 L 197.354 34.882 Q 198.356 34.882 198.875 35.445 L 198.875 35.445 L 198.875 35.445 Q 199.393 36.007 199.393 36.851 L 199.393 36.851 L 199.393 36.851 Q 199.393 37.66 198.875 38.205 L 198.875 38.205 L 198.875 38.205 Q 198.356 38.75 197.354 38.75 L 197.354 38.75 L 197.354 38.75 Q 196.352 38.75 195.851 38.205 L 195.851 38.205 L 195.851 38.205 Q 195.35 37.66 195.35 36.851 Z  M 156.514 36.851 L 156.514 36.851 L 156.514 36.851 Q 156.514 36.007 157.015 35.445 L 157.015 35.445 L 157.015 35.445 Q 157.516 34.882 158.518 34.882 L 158.518 34.882 L 158.518 34.882 Q 159.52 34.882 160.039 35.445 L 160.039 35.445 L 160.039 35.445 Q 160.557 36.007 160.557 36.851 L 160.557 36.851 L 160.557 36.851 Q 160.557 37.66 160.039 38.205 L 160.039 38.205 L 160.039 38.205 Q 159.52 38.75 158.518 38.75 L 158.518 38.75 L 158.518 38.75 Q 157.516 38.75 157.015 38.205 L 157.015 38.205 L 157.015 38.205 Q 156.514 37.66 156.514 36.851 Z " fill="rgb(185,185,185)"/><path d=" M 16.945 34.137 L 16.945 34.137 L 16.945 34.137 Q 20.426 34.137 23.027 32.027 L 23.027 32.027 L 23.027 32.027 Q 25.629 29.918 25.91 26.754 L 25.91 26.754 L 32.063 26.754 L 32.063 26.754 Q 31.887 30.023 29.813 32.977 L 29.813 32.977 L 29.813 32.977 Q 27.738 35.93 24.275 37.688 L 24.275 37.688 L 24.275 37.688 Q 20.813 39.445 16.945 39.445 L 16.945 39.445 L 16.945 39.445 Q 9.176 39.445 4.588 34.26 L 4.588 34.26 L 4.588 34.26 Q 0 29.074 0 20.074 L 0 20.074 L 0 18.984 L 0 18.984 Q 0 13.43 2.039 9.105 L 2.039 9.105 L 2.039 9.105 Q 4.078 4.781 7.893 2.391 L 7.893 2.391 L 7.893 2.391 Q 11.707 0 16.91 0 L 16.91 0 L 16.91 0 Q 23.309 0 27.545 3.832 L 27.545 3.832 L 27.545 3.832 Q 31.781 7.664 32.063 13.781 L 32.063 13.781 L 25.91 13.781 L 25.91 13.781 Q 25.629 10.09 23.115 7.717 L 23.115 7.717 L 23.115 7.717 Q 20.602 5.344 16.91 5.344 L 16.91 5.344 L 16.91 5.344 Q 11.953 5.344 9.229 8.912 L 9.229 8.912 L 9.229 8.912 Q 6.504 12.48 6.504 19.23 L 6.504 19.23 L 6.504 20.461 L 6.504 20.461 Q 6.504 27.035 9.211 30.586 L 9.211 30.586 L 9.211 30.586 Q 11.918 34.137 16.945 34.137 Z  M 32.652 19.828 L 32.652 19.371 L 32.652 19.371 Q 32.652 13.781 34.85 9.316 L 34.85 9.316 L 34.85 9.316 Q 37.047 4.852 40.967 2.426 L 40.967 2.426 L 40.967 2.426 Q 44.887 0 49.914 0 L 49.914 0 L 49.914 0 Q 57.684 0 62.482 5.379 L 62.482 5.379 L 62.482 5.379 Q 67.281 10.758 67.281 19.688 L 67.281 19.688 L 67.281 20.145 L 67.281 20.145 Q 67.281 25.699 65.154 30.111 L 65.154 30.111 L 65.154 30.111 Q 63.027 34.523 59.072 36.984 L 59.072 36.984 L 59.072 36.984 Q 55.117 39.445 49.984 39.445 L 49.984 39.445 L 49.984 39.445 Q 42.25 39.445 37.451 34.066 L 37.451 34.066 L 37.451 34.066 Q 32.652 28.688 32.652 19.828 L 32.652 19.828 Z  M 39.191 20.145 L 39.191 20.145 L 39.191 20.145 Q 39.191 26.473 42.127 30.305 L 42.127 30.305 L 42.127 30.305 Q 45.063 34.137 49.984 34.137 L 49.984 34.137 L 49.984 34.137 Q 54.941 34.137 57.859 30.252 L 57.859 30.252 L 57.859 30.252 Q 60.777 26.367 60.777 19.371 L 60.777 19.371 L 60.777 19.371 Q 60.777 13.113 57.807 9.229 L 57.807 9.229 L 57.807 9.229 Q 54.836 5.344 49.914 5.344 L 49.914 5.344 L 49.914 5.344 Q 45.098 5.344 42.145 9.176 L 42.145 9.176 L 42.145 9.176 Q 39.191 13.008 39.191 20.145 Z  M 88.824 0.492 L 88.824 6.539 L 88.824 6.539 Q 87.348 6.293 85.625 6.293 L 85.625 6.293 L 85.625 6.293 Q 79.227 6.293 76.941 11.742 L 76.941 11.742 L 76.941 38.742 L 70.438 38.742 L 70.438 0.703 L 76.766 0.703 L 76.871 5.098 L 76.871 5.098 Q 80.07 0 85.941 0 L 85.941 0 L 85.941 0 Q 87.84 0 88.824 0.492 L 88.824 0.492 Z  M 113.426 38.742 L 113.285 34.98 L 113.285 34.98 Q 109.488 39.445 102.141 39.445 L 102.141 39.445 L 102.141 39.445 Q 96.059 39.445 92.877 35.912 L 92.877 35.912 L 92.877 35.912 Q 89.695 32.379 89.66 25.453 L 89.66 25.453 L 89.66 0.703 L 96.164 0.703 L 96.164 25.277 L 96.164 25.277 Q 96.164 33.926 103.195 33.926 L 103.195 33.926 L 103.195 33.926 Q 110.648 33.926 113.109 28.371 L 113.109 28.371 L 113.109 0.703 L 119.613 0.703 L 119.613 38.742 L 113.426 38.742 Z  M 146.641 28.652 L 146.641 28.652 L 146.641 28.652 Q 146.641 26.016 144.654 24.557 L 144.654 24.557 L 144.654 24.557 Q 142.668 23.098 137.729 22.043 L 137.729 22.043 L 137.729 22.043 Q 132.789 20.988 129.889 19.512 L 129.889 19.512 L 129.889 19.512 Q 126.988 18.035 125.6 15.996 L 125.6 15.996 L 125.6 15.996 Q 124.211 13.957 124.211 11.145 L 124.211 11.145 L 124.211 11.145 Q 124.211 6.469 128.166 3.234 L 128.166 3.234 L 128.166 3.234 Q 132.121 0 138.273 0 L 138.273 0 L 138.273 0 Q 144.742 0 148.768 3.34 L 148.768 3.34 L 148.768 3.34 Q 152.793 6.68 152.793 11.883 L 152.793 11.883 L 146.254 11.883 L 146.254 11.883 Q 146.254 9.211 143.986 7.277 L 143.986 7.277 L 143.986 7.277 Q 141.719 5.344 138.273 5.344 L 138.273 5.344 L 138.273 5.344 Q 134.723 5.344 132.719 6.891 L 132.719 6.891 L 132.719 6.891 Q 130.715 8.438 130.715 10.934 L 130.715 10.934 L 130.715 10.934 Q 130.715 13.289 132.578 14.484 L 132.578 14.484 L 132.578 14.484 Q 134.441 15.68 139.311 16.77 L 139.311 16.77 L 139.311 16.77 Q 144.18 17.859 147.203 19.371 L 147.203 19.371 L 147.203 19.371 Q 150.227 20.883 151.686 23.01 L 151.686 23.01 L 151.686 23.01 Q 153.145 25.137 153.145 28.195 L 153.145 28.195 L 153.145 28.195 Q 153.145 33.293 149.066 36.369 L 149.066 36.369 L 149.066 36.369 Q 144.988 39.445 138.484 39.445 L 138.484 39.445 L 138.484 39.445 Q 133.914 39.445 130.398 37.828 L 130.398 37.828 L 130.398 37.828 Q 126.883 36.211 124.896 33.311 L 124.896 33.311 L 124.896 33.311 Q 122.91 30.41 122.91 27.035 L 122.91 27.035 L 129.414 27.035 L 129.414 27.035 Q 129.59 30.305 132.033 32.221 L 132.033 32.221 L 132.033 32.221 Q 134.477 34.137 138.484 34.137 L 138.484 34.137 L 138.484 34.137 Q 142.176 34.137 144.408 32.643 L 144.408 32.643 L 144.408 32.643 Q 146.641 31.148 146.641 28.652 Z " fill="rgb(0,0,0)"/></g></svg>