<?xml version="1.0" encoding="UTF-8" standalone="no"?><!-- Generator: Gravit.io --><svg xmlns="http://www.w3.org/2000/svg" xmlns:xlink="http://www.w3.org/1999/xlink" style="isolation:isolate" viewBox="86.355 147.055 246.161 46.224" width="246.161pt" height="46.224pt"><defs><clipPath id="_clipPath_jPYfvmdUq5iQNOfUX7JbhrRMnDsIWjHx"><rect x="86.355" y="147.055" width="246.161" height="46.224"/></clipPath></defs><g clip-path="url(#_clipPath_jPYfvmdUq5iQNOfUX7JbhrRMnDsIWjHx)"><path d=" M 299.874 176.13 L 299.874 176.13 L 299.874 176.13 Q 299.874 171.684 301.93 169.057 L 301.93 169.057 L 301.93 169.057 Q 303.985 166.431 307.376 166.431 L 307.376 166.431 L 307.376 166.431 Q 310.855 166.431 312.806 168.89 L 312.806 168.89 L 312.964 166.782 L 315.933 166.782 L 315.933 185.337 L 315.933 185.337 Q 315.933 189.026 313.746 191.152 L 313.746 191.152 L 313.746 191.152 Q 311.558 193.279 307.868 193.279 L 307.868 193.279 L 307.868 193.279 Q 305.813 193.279 303.845 192.4 L 303.845 192.4 L 303.845 192.4 Q 301.877 191.521 300.84 189.993 L 300.84 189.993 L 302.527 188.042 L 302.527 188.042 Q 304.618 190.625 307.64 190.625 L 307.64 190.625 L 307.64 190.625 Q 310.012 190.625 311.339 189.29 L 311.339 189.29 L 311.339 189.29 Q 312.665 187.955 312.665 185.53 L 312.665 185.53 L 312.665 183.896 L 312.665 183.896 Q 310.715 186.145 307.341 186.145 L 307.341 186.145 L 307.341 186.145 Q 304.003 186.145 301.938 183.457 L 301.938 183.457 L 301.938 183.457 Q 299.874 180.768 299.874 176.13 Z  M 303.142 176.499 L 303.142 176.499 L 303.142 176.499 Q 303.142 179.714 304.46 181.55 L 304.46 181.55 L 304.46 181.55 Q 305.777 183.386 308.15 183.386 L 308.15 183.386 L 308.15 183.386 Q 311.224 183.386 312.665 180.593 L 312.665 180.593 L 312.665 171.913 L 312.665 171.913 Q 311.172 169.189 308.185 169.189 L 308.185 169.189 L 308.185 169.189 Q 305.813 169.189 304.477 171.034 L 304.477 171.034 L 304.477 171.034 Q 303.142 172.879 303.142 176.499 Z  M 331.989 169.084 L 321.394 183.14 L 332.516 183.14 L 332.516 185.793 L 317.423 185.793 L 317.423 183.404 L 327.913 169.47 L 317.581 169.47 L 317.581 166.782 L 331.989 166.782 L 331.989 169.084 Z  M 250.815 162.179 L 254.065 162.179 L 254.065 166.782 L 257.614 166.782 L 257.614 169.295 L 254.065 169.295 L 254.065 181.085 L 254.065 181.085 Q 254.065 182.227 254.54 182.798 L 254.54 182.798 L 254.54 182.798 Q 255.014 183.369 256.156 183.369 L 256.156 183.369 L 256.156 183.369 Q 256.718 183.369 257.702 183.158 L 257.702 183.158 L 257.702 185.793 L 257.702 185.793 Q 256.42 186.145 255.207 186.145 L 255.207 186.145 L 255.207 186.145 Q 253.029 186.145 251.922 184.827 L 251.922 184.827 L 251.922 184.827 Q 250.815 183.509 250.815 181.085 L 250.815 181.085 L 250.815 169.295 L 247.353 169.295 L 247.353 166.782 L 250.815 166.782 L 250.815 162.179 Z  M 274.057 185.793 L 270.648 185.793 L 270.648 185.793 Q 270.367 185.231 270.191 183.79 L 270.191 183.79 L 270.191 183.79 Q 267.925 186.145 264.779 186.145 L 264.779 186.145 L 264.779 186.145 Q 261.968 186.145 260.167 184.555 L 260.167 184.555 L 260.167 184.555 Q 258.366 182.965 258.366 180.522 L 258.366 180.522 L 258.366 180.522 Q 258.366 177.553 260.624 175.91 L 260.624 175.91 L 260.624 175.91 Q 262.882 174.267 266.976 174.267 L 266.976 174.267 L 270.138 174.267 L 270.138 172.774 L 270.138 172.774 Q 270.138 171.069 269.119 170.059 L 269.119 170.059 L 269.119 170.059 Q 268.1 169.049 266.115 169.049 L 266.115 169.049 L 266.115 169.049 Q 264.375 169.049 263.198 169.927 L 263.198 169.927 L 263.198 169.927 Q 262.021 170.806 262.021 172.053 L 262.021 172.053 L 258.753 172.053 L 258.753 172.053 Q 258.753 170.63 259.763 169.303 L 259.763 169.303 L 259.763 169.303 Q 260.773 167.977 262.504 167.204 L 262.504 167.204 L 262.504 167.204 Q 264.235 166.431 266.308 166.431 L 266.308 166.431 L 266.308 166.431 Q 269.594 166.431 271.456 168.073 L 271.456 168.073 L 271.456 168.073 Q 273.319 169.716 273.389 172.598 L 273.389 172.598 L 273.389 181.348 L 273.389 181.348 Q 273.389 183.966 274.057 185.512 L 274.057 185.512 L 274.057 185.793 Z  M 265.254 183.316 L 265.254 183.316 L 265.254 183.316 Q 266.782 183.316 268.153 182.525 L 268.153 182.525 L 268.153 182.525 Q 269.523 181.735 270.138 180.47 L 270.138 180.47 L 270.138 176.569 L 267.591 176.569 L 267.591 176.569 Q 261.617 176.569 261.617 180.065 L 261.617 180.065 L 261.617 180.065 Q 261.617 181.594 262.636 182.455 L 262.636 182.455 L 262.636 182.455 Q 263.655 183.316 265.254 183.316 Z  M 275.212 176.13 L 275.212 176.13 L 275.212 176.13 Q 275.212 171.684 277.268 169.057 L 277.268 169.057 L 277.268 169.057 Q 279.324 166.431 282.715 166.431 L 282.715 166.431 L 282.715 166.431 Q 286.194 166.431 288.144 168.89 L 288.144 168.89 L 288.303 166.782 L 291.272 166.782 L 291.272 185.337 L 291.272 185.337 Q 291.272 189.026 289.084 191.152 L 289.084 191.152 L 289.084 191.152 Q 286.897 193.279 283.207 193.279 L 283.207 193.279 L 283.207 193.279 Q 281.151 193.279 279.183 192.4 L 279.183 192.4 L 279.183 192.4 Q 277.215 191.521 276.179 189.993 L 276.179 189.993 L 277.866 188.042 L 277.866 188.042 Q 279.956 190.625 282.979 190.625 L 282.979 190.625 L 282.979 190.625 Q 285.351 190.625 286.677 189.29 L 286.677 189.29 L 286.677 189.29 Q 288.004 187.955 288.004 185.53 L 288.004 185.53 L 288.004 183.896 L 288.004 183.896 Q 286.053 186.145 282.68 186.145 L 282.68 186.145 L 282.68 186.145 Q 279.342 186.145 277.277 183.457 L 277.277 183.457 L 277.277 183.457 Q 275.212 180.768 275.212 176.13 Z  M 278.481 176.499 L 278.481 176.499 L 278.481 176.499 Q 278.481 179.714 279.798 181.55 L 279.798 181.55 L 279.798 181.55 Q 281.116 183.386 283.488 183.386 L 283.488 183.386 L 283.488 183.386 Q 286.563 183.386 288.004 180.593 L 288.004 180.593 L 288.004 171.913 L 288.004 171.913 Q 286.51 169.189 283.523 169.189 L 283.523 169.189 L 283.523 169.189 Q 281.151 169.189 279.816 171.034 L 279.816 171.034 L 279.816 171.034 Q 278.481 172.879 278.481 176.499 Z  M 293.746 184.089 L 293.746 184.089 L 293.746 184.089 Q 293.746 183.246 294.246 182.683 L 294.246 182.683 L 294.246 182.683 Q 294.747 182.121 295.749 182.121 L 295.749 182.121 L 295.749 182.121 Q 296.75 182.121 297.268 182.683 L 297.268 182.683 L 297.268 182.683 Q 297.787 183.246 297.787 184.089 L 297.787 184.089 L 297.787 184.089 Q 297.787 184.897 297.268 185.442 L 297.268 185.442 L 297.268 185.442 Q 296.75 185.987 295.749 185.987 L 295.749 185.987 L 295.749 185.987 Q 294.747 185.987 294.246 185.442 L 294.246 185.442 L 294.246 185.442 Q 293.746 184.897 293.746 184.089 Z  M 242.754 184.089 L 242.754 184.089 L 242.754 184.089 Q 242.754 183.246 243.254 182.683 L 243.254 182.683 L 243.254 182.683 Q 243.755 182.121 244.757 182.121 L 244.757 182.121 L 244.757 182.121 Q 245.758 182.121 246.277 182.683 L 246.277 182.683 L 246.277 182.683 Q 246.795 183.246 246.795 184.089 L 246.795 184.089 L 246.795 184.089 Q 246.795 184.897 246.277 185.442 L 246.277 185.442 L 246.277 185.442 Q 245.758 185.987 244.757 185.987 L 244.757 185.987 L 244.757 185.987 Q 243.755 185.987 243.254 185.442 L 243.254 185.442 L 243.254 185.442 Q 242.754 184.897 242.754 184.089 Z " fill="rgb(189,189,189)"/><path d=" M 103.301 181.191 L 103.301 181.191 L 103.301 181.191 Q 106.781 181.191 109.383 179.082 L 109.383 179.082 L 109.383 179.082 Q 111.984 176.973 112.266 173.809 L 112.266 173.809 L 118.418 173.809 L 118.418 173.809 Q 118.242 177.078 116.168 180.031 L 116.168 180.031 L 116.168 180.031 Q 114.094 182.984 110.631 184.742 L 110.631 184.742 L 110.631 184.742 Q 107.168 186.5 103.301 186.5 L 103.301 186.5 L 103.301 186.5 Q 95.531 186.5 90.943 181.314 L 90.943 181.314 L 90.943 181.314 Q 86.355 176.129 86.355 167.129 L 86.355 167.129 L 86.355 166.039 L 86.355 166.039 Q 86.355 160.484 88.395 156.16 L 88.395 156.16 L 88.395 156.16 Q 90.434 151.836 94.248 149.445 L 94.248 149.445 L 94.248 149.445 Q 98.063 147.055 103.266 147.055 L 103.266 147.055 L 103.266 147.055 Q 109.664 147.055 113.9 150.887 L 113.9 150.887 L 113.9 150.887 Q 118.137 154.719 118.418 160.836 L 118.418 160.836 L 112.266 160.836 L 112.266 160.836 Q 111.984 157.145 109.471 154.771 L 109.471 154.771 L 109.471 154.771 Q 106.957 152.398 103.266 152.398 L 103.266 152.398 L 103.266 152.398 Q 98.309 152.398 95.584 155.967 L 95.584 155.967 L 95.584 155.967 Q 92.859 159.535 92.859 166.285 L 92.859 166.285 L 92.859 167.516 L 92.859 167.516 Q 92.859 174.09 95.566 177.641 L 95.566 177.641 L 95.566 177.641 Q 98.273 181.191 103.301 181.191 Z  M 119.008 166.883 L 119.008 166.426 L 119.008 166.426 Q 119.008 160.836 121.205 156.371 L 121.205 156.371 L 121.205 156.371 Q 123.402 151.906 127.322 149.48 L 127.322 149.48 L 127.322 149.48 Q 131.242 147.055 136.27 147.055 L 136.27 147.055 L 136.27 147.055 Q 144.039 147.055 148.838 152.434 L 148.838 152.434 L 148.838 152.434 Q 153.637 157.813 153.637 166.742 L 153.637 166.742 L 153.637 167.199 L 153.637 167.199 Q 153.637 172.754 151.51 177.166 L 151.51 177.166 L 151.51 177.166 Q 149.383 181.578 145.428 184.039 L 145.428 184.039 L 145.428 184.039 Q 141.473 186.5 136.34 186.5 L 136.34 186.5 L 136.34 186.5 Q 128.605 186.5 123.807 181.121 L 123.807 181.121 L 123.807 181.121 Q 119.008 175.742 119.008 166.883 L 119.008 166.883 Z  M 125.547 167.199 L 125.547 167.199 L 125.547 167.199 Q 125.547 173.527 128.482 177.359 L 128.482 177.359 L 128.482 177.359 Q 131.418 181.191 136.34 181.191 L 136.34 181.191 L 136.34 181.191 Q 141.297 181.191 144.215 177.307 L 144.215 177.307 L 144.215 177.307 Q 147.133 173.422 147.133 166.426 L 147.133 166.426 L 147.133 166.426 Q 147.133 160.168 144.162 156.283 L 144.162 156.283 L 144.162 156.283 Q 141.191 152.398 136.27 152.398 L 136.27 152.398 L 136.27 152.398 Q 131.453 152.398 128.5 156.23 L 128.5 156.23 L 128.5 156.23 Q 125.547 160.063 125.547 167.199 Z  M 175.18 147.547 L 175.18 153.594 L 175.18 153.594 Q 173.703 153.348 171.98 153.348 L 171.98 153.348 L 171.98 153.348 Q 165.582 153.348 163.297 158.797 L 163.297 158.797 L 163.297 185.797 L 156.793 185.797 L 156.793 147.758 L 163.121 147.758 L 163.227 152.152 L 163.227 152.152 Q 166.426 147.055 172.297 147.055 L 172.297 147.055 L 172.297 147.055 Q 174.195 147.055 175.18 147.547 L 175.18 147.547 Z  M 199.781 185.797 L 199.641 182.035 L 199.641 182.035 Q 195.844 186.5 188.496 186.5 L 188.496 186.5 L 188.496 186.5 Q 182.414 186.5 179.232 182.967 L 179.232 182.967 L 179.232 182.967 Q 176.051 179.434 176.016 172.508 L 176.016 172.508 L 176.016 147.758 L 182.52 147.758 L 182.52 172.332 L 182.52 172.332 Q 182.52 180.98 189.551 180.98 L 189.551 180.98 L 189.551 180.98 Q 197.004 180.98 199.465 175.426 L 199.465 175.426 L 199.465 147.758 L 205.969 147.758 L 205.969 185.797 L 199.781 185.797 Z  M 232.996 175.707 L 232.996 175.707 L 232.996 175.707 Q 232.996 173.07 231.01 171.611 L 231.01 171.611 L 231.01 171.611 Q 229.023 170.152 224.084 169.098 L 224.084 169.098 L 224.084 169.098 Q 219.145 168.043 216.244 166.566 L 216.244 166.566 L 216.244 166.566 Q 213.344 165.09 211.955 163.051 L 211.955 163.051 L 211.955 163.051 Q 210.566 161.012 210.566 158.199 L 210.566 158.199 L 210.566 158.199 Q 210.566 153.523 214.521 150.289 L 214.521 150.289 L 214.521 150.289 Q 218.477 147.055 224.629 147.055 L 224.629 147.055 L 224.629 147.055 Q 231.098 147.055 235.123 150.395 L 235.123 150.395 L 235.123 150.395 Q 239.148 153.734 239.148 158.938 L 239.148 158.938 L 232.609 158.938 L 232.609 158.938 Q 232.609 156.266 230.342 154.332 L 230.342 154.332 L 230.342 154.332 Q 228.074 152.398 224.629 152.398 L 224.629 152.398 L 224.629 152.398 Q 221.078 152.398 219.074 153.945 L 219.074 153.945 L 219.074 153.945 Q 217.07 155.492 217.07 157.988 L 217.07 157.988 L 217.07 157.988 Q 217.07 160.344 218.934 161.539 L 218.934 161.539 L 218.934 161.539 Q 220.797 162.734 225.666 163.824 L 225.666 163.824 L 225.666 163.824 Q 230.535 164.914 233.559 166.426 L 233.559 166.426 L 233.559 166.426 Q 236.582 167.938 238.041 170.064 L 238.041 170.064 L 238.041 170.064 Q 239.5 172.191 239.5 175.25 L 239.5 175.25 L 239.5 175.25 Q 239.5 180.348 235.422 183.424 L 235.422 183.424 L 235.422 183.424 Q 231.344 186.5 224.84 186.5 L 224.84 186.5 L 224.84 186.5 Q 220.27 186.5 216.754 184.883 L 216.754 184.883 L 216.754 184.883 Q 213.238 183.266 211.252 180.365 L 211.252 180.365 L 211.252 180.365 Q 209.266 177.465 209.266 174.09 L 209.266 174.09 L 215.77 174.09 L 215.77 174.09 Q 215.945 177.359 218.389 179.275 L 218.389 179.275 L 218.389 179.275 Q 220.832 181.191 224.84 181.191 L 224.84 181.191 L 224.84 181.191 Q 228.531 181.191 230.764 179.697 L 230.764 179.697 L 230.764 179.697 Q 232.996 178.203 232.996 175.707 Z " fill="rgb(0,0,0)"/></g></svg>