<svg width="423" height="89" viewBox="0 0 423 89" fill="none" xmlns="http://www.w3.org/2000/svg">
<path d="M121.26 3.75891H127.925V83.8627H121.26" fill="#96CCF3"/>
<path d="M412 3.75891H418.665V83.8627H412" fill="#96CCF3"/>
<path d="M414.523 3.75891V10.4184H127.925V3.75891" fill="#96CCF3"/>
<path d="M414.523 77.1557V83.8151H127.925V77.1557" fill="#96CCF3"/>
<path d="M0.288467 7.08864C0.288467 5.28107 0.764544 3.85405 1.76431 2.9027C2.76407 1.90378 4.1923 1.4281 6.00139 1.4281C7.81048 1.4281 9.19111 1.90378 10.1909 2.9027C11.1906 3.90161 11.6667 5.28107 11.6667 7.08864C11.6667 8.80107 11.1906 10.1805 10.1909 11.1795C9.19111 12.1784 7.81048 12.654 6.00139 12.654C4.14469 12.654 2.71646 12.1784 1.76431 11.1795C0.764544 10.1805 0.288467 8.80107 0.288467 7.08864ZM11.0478 67.4995H0.907367V19.7416H11.0478V67.4995Z" fill="black"/>
<path d="M43.6591 68.3557C37.6129 68.3557 32.8997 66.1676 29.5672 61.8389C29.5672 61.8389 29.5672 68.3081 29.5672 69.1643V88.7622H19.3792V19.7416H27.6153C27.8533 20.6454 29.5672 26.1157 29.5672 26.1157C32.7569 21.2638 37.5177 18.8378 43.8495 18.8378C49.8005 18.8378 54.466 20.9784 57.7986 25.307C61.1311 29.6357 62.7974 35.6768 62.7974 43.4778C62.7974 51.2789 61.0835 57.3676 57.7033 61.7438C54.2756 66.1676 49.61 68.3557 43.6591 68.3557ZM41.1835 27.1622C37.1368 27.1622 34.1851 28.3514 32.3284 30.6822C30.4717 33.0605 29.5196 36.8184 29.5196 42.0032V43.5254C29.5196 49.3287 30.4241 53.5622 32.2808 56.1784C34.1375 58.7946 37.1368 60.0789 41.3263 60.0789C44.8493 60.0789 47.5629 58.6519 49.4672 55.7503C51.3715 52.8487 52.3237 48.7578 52.3237 43.4303C52.3237 38.0551 51.3715 34.0119 49.5148 31.253C47.6581 28.4941 44.8493 27.1622 41.1835 27.1622Z" fill="black"/>
<path d="M63.9876 19.7416H75.0326L84.7446 46.8076C86.2204 50.6605 88.0295 57.7005 88.0295 57.7005C88.2675 56.1308 88.7436 54.1805 89.4577 51.9449C90.1718 49.7092 93.79 38.9589 100.455 19.7416H111.452L90.9812 73.8735C87.2678 83.8151 81.0788 88.7622 72.3666 88.7622C70.129 88.7622 67.9391 88.5243 65.7967 88.0486V80.0097C67.3202 80.3427 69.0816 80.533 71.0336 80.533C75.9371 80.533 79.3649 77.6789 81.3644 72.0184L83.1259 67.547L63.9876 19.7416Z" fill="black"/>
<path d="M158.06 67.4995H147.872V38.0551C147.872 34.3924 147.158 31.6811 145.778 29.8735C144.397 28.0659 142.255 27.1622 139.303 27.1622C135.399 27.1622 132.495 28.4465 130.686 30.9676C128.877 33.5362 127.925 37.7697 127.925 43.6681V67.4519H117.784V19.7416H125.735L127.687 26.0205C129.02 23.7373 130.924 21.9773 133.447 20.7405C135.97 19.5038 138.732 18.8854 141.779 18.8854C149.11 18.8854 154.014 21.4065 156.394 26.4011C156.394 26.4011 160.488 22.2151 163.059 20.8832C165.63 19.5513 168.582 18.8854 171.867 18.8854C177.58 18.8854 181.721 20.3124 184.34 23.214C186.958 26.1157 188.244 30.4919 188.244 36.3903V67.547H178.103V38.0551C178.103 34.3924 177.389 31.6811 176.008 29.8735C174.628 28.0659 172.438 27.1622 169.486 27.1622C165.535 27.1622 162.631 28.3989 160.822 30.8724C159.013 33.3459 158.06 37.1038 158.06 42.1935V67.4995Z" fill="black"/>
<path d="M228.52 67.4995L226.139 60.84C223.854 63.7416 221.521 65.7395 219.189 66.7859C216.856 67.8324 213.857 68.3557 210.191 68.3557C205.478 68.3557 201.812 67.0714 199.193 64.5503C196.575 62.0292 195.242 58.4141 195.242 53.8C195.242 48.853 197.051 45.1427 200.717 42.6692C204.383 40.1481 209.953 38.8162 217.427 38.5784L225.663 38.3405V35.7719C225.663 32.7276 224.949 30.4443 223.521 28.9222C222.093 27.4 219.903 26.6389 216.903 26.6389C214.475 26.6389 212.095 27.0195 209.858 27.733C207.62 28.4465 205.43 29.3027 203.383 30.3016L200.098 23.0238C202.669 21.6919 205.525 20.6454 208.62 19.9319C211.714 19.2184 214.618 18.8854 217.332 18.8854C223.426 18.8854 227.996 20.2173 231.091 22.8811C234.185 25.5449 235.756 29.6832 235.756 35.3438V67.547H228.52V67.4995ZM213.38 60.6022C217.094 60.6022 220.046 59.5557 222.283 57.5103C224.521 55.4649 225.616 52.5632 225.616 48.853V44.7146L219.474 44.9524C214.666 45.1427 211.191 45.9038 209.048 47.3308C206.858 48.7578 205.763 50.9459 205.763 53.8951C205.763 56.0357 206.382 57.653 207.668 58.8422C208.953 60.0313 210.857 60.6022 213.38 60.6022Z" fill="black"/>
<path d="M269.462 18.8854C271.51 18.8854 273.176 19.0281 274.509 19.3135L273.509 28.7795C272.081 28.4465 270.557 28.2562 269.034 28.2562C264.987 28.2562 261.655 29.5881 259.132 32.2519C256.608 34.9157 255.37 38.3405 255.37 42.5741V67.547H245.23V19.7416H253.181L255.037 28.1611C256.608 25.307 258.703 23.0713 261.226 21.3589C263.797 19.694 266.511 18.8854 269.462 18.8854Z" fill="black"/>
<path d="M290.362 42.2887L296.123 35.1059L310.548 19.7416H322.259L303.026 40.2432L323.497 67.4995H311.548L296.218 46.5697L290.648 51.1362V67.4995H280.555V0.286484H290.648V33.0605L290.362 42.2887Z" fill="black"/>
<path d="M362.488 67.4995L360.536 61.2205C359.108 63.4562 357.108 65.1687 354.49 66.453C351.871 67.7373 348.92 68.3557 345.54 68.3557C339.731 68.3557 335.399 66.9287 332.59 64.027C329.734 61.1254 328.306 56.7968 328.306 50.9459V19.7416H338.541V49.1859C338.541 52.8487 339.303 55.6076 340.779 57.4151C342.255 59.2227 344.635 60.1741 347.825 60.1741C352.109 60.1741 355.204 58.8897 357.251 56.3687C359.251 53.8 360.25 49.5665 360.25 43.573V19.7892H370.438V67.547H362.488V67.4995Z" fill="black"/>
<path d="M403.526 68.3557C397.48 68.3557 392.766 66.1676 389.434 61.8389C389.434 61.8389 389.434 68.3081 389.434 69.1643V88.7622H379.293V19.7416H387.53C387.768 20.6454 389.481 26.1157 389.481 26.1157C392.671 21.2638 397.432 18.8378 403.764 18.8378C409.715 18.8378 414.38 20.9784 417.713 25.307C421.045 29.6357 422.712 35.6768 422.712 43.4778C422.712 51.2789 420.998 57.3676 417.618 61.7438C414.19 66.1676 409.477 68.3557 403.526 68.3557ZM401.05 27.1622C397.003 27.1622 394.052 28.3514 392.195 30.6822C390.338 33.0605 389.386 36.8184 389.386 42.0032V43.5254C389.386 49.3287 390.291 53.5622 392.147 56.1784C394.004 58.7946 397.003 60.0789 401.193 60.0789C404.716 60.0789 407.43 58.6519 409.334 55.7503C411.238 52.8487 412.19 48.7578 412.19 43.4303C412.19 38.0551 411.238 34.0119 409.381 31.253C407.525 28.4941 404.716 27.1622 401.05 27.1622Z" fill="black"/>
</svg>
