<?xml version="1.0" encoding="UTF-8" standalone="no"?><!-- Generator: Gravit.io --><svg xmlns="http://www.w3.org/2000/svg" xmlns:xlink="http://www.w3.org/1999/xlink" style="isolation:isolate" viewBox="85.957 134.3 292.963 81.62" width="292.963pt" height="81.62pt"><defs><clipPath id="_clipPath_jDc0MHcH31PsWBsirvakLdDFFxknwfKG"><rect x="85.957" y="134.3" width="292.963" height="81.62"/></clipPath></defs><g clip-path="url(#_clipPath_jDc0MHcH31PsWBsirvakLdDFFxknwfKG)"><path d=" M 162.434 140.797 L 372.418 140.797 L 372.418 209.422 L 162.434 209.422 L 162.434 140.797 Z  M 155.93 134.3 L 378.92 134.3 L 378.92 215.92 L 155.93 215.92 L 155.93 134.3 Z " fill-rule="evenodd" fill="rgb(255,241,118)"/><path d=" M 92.988 156.758 L 92.988 194.797 L 86.484 194.797 L 86.484 156.758 L 92.988 156.758 Z  M 85.957 146.668 L 85.957 146.668 L 85.957 146.668 Q 85.957 145.086 86.924 143.996 L 86.924 143.996 L 86.924 143.996 Q 87.891 142.906 89.789 142.906 L 89.789 142.906 L 89.789 142.906 Q 91.688 142.906 92.672 143.996 L 92.672 143.996 L 92.672 143.996 Q 93.656 145.086 93.656 146.668 L 93.656 146.668 L 93.656 146.668 Q 93.656 148.25 92.672 149.305 L 92.672 149.305 L 92.672 149.305 Q 91.688 150.359 89.789 150.359 L 89.789 150.359 L 89.789 150.359 Q 87.891 150.359 86.924 149.305 L 86.924 149.305 L 86.924 149.305 Q 85.957 148.25 85.957 146.668 Z  M 130.527 175.602 L 130.527 176.199 L 130.527 176.199 Q 130.527 184.883 126.555 190.191 L 126.555 190.191 L 126.555 190.191 Q 122.582 195.5 115.797 195.5 L 115.797 195.5 L 115.797 195.5 Q 108.871 195.5 104.898 191.105 L 104.898 191.105 L 104.898 209.422 L 98.395 209.422 L 98.395 156.758 L 104.336 156.758 L 104.652 160.977 L 104.652 160.977 Q 108.625 156.055 115.691 156.055 L 115.691 156.055 L 115.691 156.055 Q 122.547 156.055 126.537 161.223 L 126.537 161.223 L 126.537 161.223 Q 130.527 166.391 130.527 175.602 L 130.527 175.602 Z  M 124.023 175.461 L 124.023 175.461 L 124.023 175.461 Q 124.023 169.027 121.281 165.301 L 121.281 165.301 L 121.281 165.301 Q 118.539 161.574 113.758 161.574 L 113.758 161.574 L 113.758 161.574 Q 107.852 161.574 104.898 166.813 L 104.898 166.813 L 104.898 184.988 L 104.898 184.988 Q 107.816 190.191 113.828 190.191 L 113.828 190.191 L 113.828 190.191 Q 118.504 190.191 121.264 186.482 L 121.264 186.482 L 121.264 186.482 Q 124.023 182.773 124.023 175.461 Z  M 136.355 156.758 L 145.848 185.27 L 154.707 156.758 L 161.668 156.758 L 146.375 200.668 L 146.375 200.668 Q 142.824 210.16 135.09 210.16 L 135.09 210.16 L 133.859 210.055 L 131.434 209.598 L 131.434 204.324 L 133.191 204.465 L 133.191 204.465 Q 136.496 204.465 138.342 203.129 L 138.342 203.129 L 138.342 203.129 Q 140.188 201.793 141.383 198.242 L 141.383 198.242 L 142.824 194.375 L 129.254 156.758 L 136.355 156.758 Z  M 162.434 156.758 L 168.586 156.758 L 168.762 160.977 L 168.762 160.977 Q 172.945 156.055 180.047 156.055 L 180.047 156.055 L 180.047 156.055 Q 188.027 156.055 190.91 162.172 L 190.91 162.172 L 190.91 162.172 Q 192.809 159.43 195.85 157.742 L 195.85 157.742 L 195.85 157.742 Q 198.891 156.055 203.039 156.055 L 203.039 156.055 L 203.039 156.055 Q 215.555 156.055 215.766 169.309 L 215.766 169.309 L 215.766 194.797 L 209.262 194.797 L 209.262 169.695 L 209.262 169.695 Q 209.262 165.617 207.398 163.596 L 207.398 163.596 L 207.398 163.596 Q 205.535 161.574 201.141 161.574 L 201.141 161.574 L 201.141 161.574 Q 197.52 161.574 195.129 163.736 L 195.129 163.736 L 195.129 163.736 Q 192.738 165.898 192.352 169.555 L 192.352 169.555 L 192.352 194.797 L 185.813 194.797 L 185.813 169.871 L 185.813 169.871 Q 185.813 161.574 177.691 161.574 L 177.691 161.574 L 177.691 161.574 Q 171.293 161.574 168.938 167.023 L 168.938 167.023 L 168.938 194.797 L 162.434 194.797 L 162.434 156.758 Z  M 250.879 194.797 L 244.059 194.797 L 244.059 194.797 Q 243.496 193.672 243.145 190.789 L 243.145 190.789 L 243.145 190.789 Q 238.609 195.5 232.316 195.5 L 232.316 195.5 L 232.316 195.5 Q 226.691 195.5 223.088 192.318 L 223.088 192.318 L 223.088 192.318 Q 219.484 189.137 219.484 184.25 L 219.484 184.25 L 219.484 184.25 Q 219.484 178.309 224.002 175.021 L 224.002 175.021 L 224.002 175.021 Q 228.52 171.734 236.711 171.734 L 236.711 171.734 L 243.039 171.734 L 243.039 168.746 L 243.039 168.746 Q 243.039 165.336 241 163.314 L 241 163.314 L 241 163.314 Q 238.961 161.293 234.988 161.293 L 234.988 161.293 L 234.988 161.293 Q 231.508 161.293 229.152 163.051 L 229.152 163.051 L 229.152 163.051 Q 226.797 164.809 226.797 167.305 L 226.797 167.305 L 220.258 167.305 L 220.258 167.305 Q 220.258 164.457 222.279 161.803 L 222.279 161.803 L 222.279 161.803 Q 224.301 159.148 227.764 157.602 L 227.764 157.602 L 227.764 157.602 Q 231.227 156.055 235.375 156.055 L 235.375 156.055 L 235.375 156.055 Q 241.949 156.055 245.676 159.342 L 245.676 159.342 L 245.676 159.342 Q 249.402 162.629 249.543 168.395 L 249.543 168.395 L 249.543 185.902 L 249.543 185.902 Q 249.543 191.141 250.879 194.234 L 250.879 194.234 L 250.879 194.797 Z  M 233.266 189.84 L 233.266 189.84 L 233.266 189.84 Q 236.324 189.84 239.066 188.258 L 239.066 188.258 L 239.066 188.258 Q 241.809 186.676 243.039 184.145 L 243.039 184.145 L 243.039 176.34 L 237.941 176.34 L 237.941 176.34 Q 225.988 176.34 225.988 183.336 L 225.988 183.336 L 225.988 183.336 Q 225.988 186.395 228.027 188.117 L 228.027 188.117 L 228.027 188.117 Q 230.066 189.84 233.266 189.84 Z  M 273.125 156.547 L 273.125 162.594 L 273.125 162.594 Q 271.648 162.348 269.926 162.348 L 269.926 162.348 L 269.926 162.348 Q 263.527 162.348 261.242 167.797 L 261.242 167.797 L 261.242 194.797 L 254.738 194.797 L 254.738 156.758 L 261.066 156.758 L 261.172 161.152 L 261.172 161.152 Q 264.371 156.055 270.242 156.055 L 270.242 156.055 L 270.242 156.055 Q 272.141 156.055 273.125 156.547 L 273.125 156.547 Z  M 297.973 194.797 L 284.719 177.184 L 280.641 181.438 L 280.641 194.797 L 274.137 194.797 L 274.137 140.797 L 280.641 140.797 L 280.641 173.457 L 284.121 169.273 L 295.969 156.758 L 303.879 156.758 L 289.078 172.648 L 305.602 194.797 L 297.973 194.797 Z  M 329.219 194.797 L 329.078 191.035 L 329.078 191.035 Q 325.281 195.5 317.934 195.5 L 317.934 195.5 L 317.934 195.5 Q 311.852 195.5 308.67 191.967 L 308.67 191.967 L 308.67 191.967 Q 305.488 188.434 305.453 181.508 L 305.453 181.508 L 305.453 156.758 L 311.957 156.758 L 311.957 181.332 L 311.957 181.332 Q 311.957 189.98 318.988 189.98 L 318.988 189.98 L 318.988 189.98 Q 326.441 189.98 328.902 184.426 L 328.902 184.426 L 328.902 156.758 L 335.406 156.758 L 335.406 194.797 L 329.219 194.797 Z  M 372.418 175.602 L 372.418 176.199 L 372.418 176.199 Q 372.418 184.883 368.445 190.191 L 368.445 190.191 L 368.445 190.191 Q 364.473 195.5 357.688 195.5 L 357.688 195.5 L 357.688 195.5 Q 350.762 195.5 346.789 191.105 L 346.789 191.105 L 346.789 209.422 L 340.285 209.422 L 340.285 156.758 L 346.227 156.758 L 346.543 160.977 L 346.543 160.977 Q 350.516 156.055 357.582 156.055 L 357.582 156.055 L 357.582 156.055 Q 364.438 156.055 368.428 161.223 L 368.428 161.223 L 368.428 161.223 Q 372.418 166.391 372.418 175.602 L 372.418 175.602 Z  M 365.914 175.461 L 365.914 175.461 L 365.914 175.461 Q 365.914 169.027 363.172 165.301 L 363.172 165.301 L 363.172 165.301 Q 360.43 161.574 355.648 161.574 L 355.648 161.574 L 355.648 161.574 Q 349.742 161.574 346.789 166.813 L 346.789 166.813 L 346.789 184.988 L 346.789 184.988 Q 349.707 190.191 355.719 190.191 L 355.719 190.191 L 355.719 190.191 Q 360.395 190.191 363.154 186.482 L 363.154 186.482 L 363.154 186.482 Q 365.914 182.773 365.914 175.461 Z " fill="rgb(0,0,0)"/></g></svg>