<svg width="256" height="68" viewBox="0 0 256 68" fill="none" xmlns="http://www.w3.org/2000/svg">
<path d="M190.756 48.2762L143.81 66.0385V55.549L171.117 46.0385C175.699 44.4068 179.393 43.4277 182.246 43.0548C182.246 43.0548 176.494 41.4697 171.117 39.7447L143.81 30.2342V19.6514L190.756 37.507V48.2762V48.2762Z" fill="#96CCF3"/>
<path d="M41.6885 66.4581H31.6353V37.6935C31.6353 34.0571 30.8872 31.3997 29.4377 29.6282C27.9881 27.8566 25.6502 26.9708 22.5173 26.9708C18.309 26.9708 15.2229 28.2296 13.2591 30.7004C11.2952 33.1713 10.3133 37.3671 10.3133 43.1946V66.5047H0.353607V19.6514H8.16235L10.0795 25.7587C11.4822 23.5209 13.4929 21.796 16.1114 20.5838C18.7299 19.3717 21.5822 18.7657 24.7618 18.7657C36.0307 18.7657 41.6417 24.4999 41.6417 35.9219V66.4581H41.6885Z" fill="black"/>
<path d="M81.1997 66.4582L78.8618 59.9313C76.6174 62.7752 74.3262 64.7332 72.035 65.7588C69.7438 66.7845 66.798 67.2973 63.1976 67.2973C58.5684 67.2973 54.968 66.0386 52.3963 63.5677C49.8245 61.0968 48.5153 57.5537 48.5153 53.0315C48.5153 48.183 50.2921 44.5466 53.8925 42.1224C57.493 39.6515 62.9638 38.3462 70.3049 38.1131L78.3942 37.88V35.3625C78.3942 32.3788 77.6928 30.141 76.2901 28.6492C74.8873 27.1573 72.7364 26.4114 69.7906 26.4114C67.4059 26.4114 65.0679 26.7843 62.8703 27.4836C60.6726 28.183 58.5217 29.0221 56.511 30.0011L53.2847 22.8682C55.8097 21.5629 58.6152 20.5372 61.6545 19.8379C64.6939 19.1386 67.5461 18.8123 70.2114 18.8123C76.1965 18.8123 80.6854 20.1177 83.7247 22.7284C86.7641 25.3391 88.3071 29.3951 88.3071 34.9429V66.5048H81.1997V66.4582ZM66.3304 59.6982C69.9309 59.6982 72.8767 58.6726 75.0743 56.6679C77.272 54.6632 78.3475 51.8194 78.3475 48.183V44.1271L72.3155 44.3602C67.5929 44.5466 64.1795 45.2926 62.0754 46.6912C59.9244 48.0898 58.849 50.2343 58.849 53.1248C58.849 55.2227 59.4569 56.8078 60.7193 57.9733C61.9818 59.1388 63.8522 59.6982 66.3304 59.6982Z" fill="black"/>
<path d="M118.093 67.2973C110.798 67.2973 105.094 65.1528 100.979 60.9103C96.864 56.6679 94.8066 50.7937 94.8066 43.3811C94.8066 35.7354 96.7237 29.7214 100.558 25.3391C104.392 20.9568 109.629 18.7657 116.316 18.7657C122.535 18.7657 127.398 20.6305 130.998 24.4067C134.598 28.1829 136.375 33.3112 136.375 39.8846V45.2459H105.094C105.234 49.7681 106.45 53.2646 108.788 55.7355C111.125 58.1597 114.399 59.4185 118.607 59.4185C121.366 59.4185 123.984 59.1387 126.369 58.6259C128.754 58.1131 131.325 57.2273 134.084 56.0152V64.0805C131.653 65.246 129.174 66.0385 126.696 66.5514C124.171 67.0642 121.319 67.2973 118.093 67.2973ZM116.269 26.3181C113.089 26.3181 110.564 27.2972 108.647 29.3018C106.73 31.3065 105.608 34.2436 105.234 38.0664H126.556C126.509 34.1969 125.574 31.2599 123.75 29.3018C121.927 27.3438 119.449 26.3181 116.269 26.3181Z" fill="black"/>
<path d="M229.706 66.4582L227.368 59.9313C225.124 62.7752 222.832 64.7332 220.541 65.7588C218.25 66.7845 215.304 67.2973 211.704 67.2973C207.075 67.2973 203.474 66.0386 200.902 63.5677C198.331 61.0968 197.021 57.5537 197.021 53.0315C197.021 48.183 198.798 44.5466 202.399 42.1224C205.999 39.6515 211.47 38.3462 218.811 38.1131L226.9 37.88V35.3625C226.9 32.3788 226.199 30.141 224.796 28.6492C223.393 27.1573 221.243 26.4114 218.297 26.4114C215.912 26.4114 213.574 26.7843 211.376 27.4836C209.179 28.183 207.028 29.0221 205.017 30.0011L201.791 22.8682C204.316 21.5629 207.121 20.5372 210.161 19.8379C213.2 19.1386 216.052 18.8123 218.718 18.8123C224.703 18.8123 229.192 20.1177 232.231 22.7284C235.27 25.3391 236.813 29.3951 236.813 34.9429V66.5048H229.706V66.4582ZM214.837 59.6982C218.484 59.6982 221.383 58.6726 223.581 56.6679C225.778 54.6632 226.854 51.8194 226.854 48.183V44.1271L220.822 44.3602C216.099 44.5466 212.686 45.2926 210.582 46.6912C208.431 48.0898 207.355 50.2343 207.355 53.1248C207.355 55.2227 207.963 56.8078 209.226 57.9733C210.488 59.1388 212.358 59.6982 214.837 59.6982Z" fill="black"/>
<path d="M255.143 66.4581H245.183V0.583778H255.143V66.4581Z" fill="black"/>
</svg>
