<?xml version="1.0" encoding="UTF-8" standalone="no"?><!-- Generator: Gravit.io --><svg xmlns="http://www.w3.org/2000/svg" xmlns:xlink="http://www.w3.org/1999/xlink" style="isolation:isolate" viewBox="313.117 398 196.15 55.406" width="196.15pt" height="55.406pt"><defs><clipPath id="_clipPath_NAWG4piYmJffeI61Xe24D0N7SkHFVeYc"><rect x="313.117" y="398" width="196.15" height="55.406"/></clipPath></defs><g clip-path="url(#_clipPath_NAWG4piYmJffeI61Xe24D0N7SkHFVeYc)"><path d=" M 345.672 452.703 L 339.414 452.703 L 339.414 428.023 L 339.414 428.023 Q 339.414 423.313 337.322 421.01 L 337.322 421.01 L 337.322 421.01 Q 335.23 418.707 330.766 418.707 L 330.766 418.707 L 330.766 418.707 Q 324.824 418.707 322.135 421.994 L 322.135 421.994 L 322.135 421.994 Q 319.445 425.281 319.445 432.699 L 319.445 432.699 L 319.445 452.703 L 313.117 452.703 L 313.117 414.102 L 318.215 414.102 L 319.164 419.375 L 319.516 419.375 L 319.516 419.375 Q 321.309 416.527 324.543 414.963 L 324.543 414.963 L 324.543 414.963 Q 327.777 413.398 331.68 413.398 L 331.68 413.398 L 331.68 413.398 Q 338.781 413.398 342.227 416.844 L 342.227 416.844 L 342.227 416.844 Q 345.672 420.289 345.672 427.566 L 345.672 427.566 L 345.672 452.703 Z  M 381.066 452.703 L 376.461 452.703 L 375.23 447.219 L 374.949 447.219 L 374.949 447.219 Q 372.066 450.84 369.201 452.123 L 369.201 452.123 L 369.201 452.123 Q 366.336 453.406 361.977 453.406 L 361.977 453.406 L 361.977 453.406 Q 356.281 453.406 353.047 450.418 L 353.047 450.418 L 353.047 450.418 Q 349.813 447.43 349.813 441.98 L 349.813 441.98 L 349.813 441.98 Q 349.813 430.238 368.34 429.676 L 368.34 429.676 L 374.879 429.43 L 374.879 427.145 L 374.879 427.145 Q 374.879 422.75 372.98 420.658 L 372.98 420.658 L 372.98 420.658 Q 371.082 418.566 366.898 418.566 L 366.898 418.566 L 366.898 418.566 Q 363.84 418.566 361.115 419.48 L 361.115 419.48 L 361.115 419.48 Q 358.391 420.395 356 421.52 L 356 421.52 L 354.066 416.773 L 354.066 416.773 Q 356.984 415.227 360.43 414.348 L 360.43 414.348 L 360.43 414.348 Q 363.875 413.469 367.25 413.469 L 367.25 413.469 L 367.25 413.469 Q 374.246 413.469 377.656 416.563 L 377.656 416.563 L 377.656 416.563 Q 381.066 419.656 381.066 426.406 L 381.066 426.406 L 381.066 452.703 Z  M 363.418 448.309 L 363.418 448.309 L 363.418 448.309 Q 368.727 448.309 371.768 445.443 L 371.768 445.443 L 371.768 445.443 Q 374.809 442.578 374.809 437.305 L 374.809 437.305 L 374.809 433.824 L 369.113 434.07 L 369.113 434.07 Q 362.469 434.316 359.428 436.18 L 359.428 436.18 L 359.428 436.18 Q 356.387 438.043 356.387 442.051 L 356.387 442.051 L 356.387 442.051 Q 356.387 445.074 358.232 446.691 L 358.232 446.691 L 358.232 446.691 Q 360.078 448.309 363.418 448.309 Z  M 404.438 453.406 L 404.438 453.406 L 404.438 453.406 Q 395.754 453.406 390.814 448.15 L 390.814 448.15 L 390.814 448.15 Q 385.875 442.895 385.875 433.684 L 385.875 433.684 L 385.875 433.684 Q 385.875 424.402 390.48 418.9 L 390.48 418.9 L 390.48 418.9 Q 395.086 413.398 402.926 413.398 L 402.926 413.398 L 402.926 413.398 Q 410.203 413.398 414.527 418.092 L 414.527 418.092 L 414.527 418.092 Q 418.852 422.785 418.852 430.801 L 418.852 430.801 L 418.852 434.633 L 392.414 434.633 L 392.414 434.633 Q 392.59 441.207 395.754 444.617 L 395.754 444.617 L 395.754 444.617 Q 398.918 448.027 404.719 448.027 L 404.719 448.027 L 404.719 448.027 Q 407.813 448.027 410.59 447.482 L 410.59 447.482 L 410.59 447.482 Q 413.367 446.938 417.094 445.355 L 417.094 445.355 L 417.094 450.91 L 417.094 450.91 Q 413.895 452.281 411.082 452.844 L 411.082 452.844 L 411.082 452.844 Q 408.27 453.406 404.438 453.406 Z  M 402.855 418.566 L 402.855 418.566 L 402.855 418.566 Q 398.32 418.566 395.684 421.484 L 395.684 421.484 L 395.684 421.484 Q 393.047 424.402 392.555 429.605 L 392.555 429.605 L 412.207 429.605 L 412.207 429.605 Q 412.137 424.191 409.711 421.379 L 409.711 421.379 L 409.711 421.379 Q 407.285 418.566 402.855 418.566 Z " fill="rgb(0,0,0)"/><path d=" M 461.301 429.781 L 461.301 437.059 L 422.699 451.684 L 422.699 444.898 L 445.445 436.707 L 445.445 436.707 Q 452.301 434.281 455.676 433.613 L 455.676 433.613 L 455.676 433.332 L 455.676 433.332 Q 455.219 433.227 454.639 433.068 L 454.639 433.068 L 454.639 433.068 Q 454.059 432.91 453.373 432.699 L 453.373 432.699 L 453.373 432.699 Q 452.688 432.488 445.445 430.098 L 445.445 430.098 L 422.699 421.871 L 422.699 415.121 L 461.301 429.781 Z " fill="rgb(0,0,0)"/><path d=" M 495.986 452.703 L 491.381 452.703 L 490.15 447.219 L 489.869 447.219 L 489.869 447.219 Q 486.986 450.84 484.121 452.123 L 484.121 452.123 L 484.121 452.123 Q 481.256 453.406 476.896 453.406 L 476.896 453.406 L 476.896 453.406 Q 471.201 453.406 467.967 450.418 L 467.967 450.418 L 467.967 450.418 Q 464.732 447.43 464.732 441.98 L 464.732 441.98 L 464.732 441.98 Q 464.732 430.238 483.26 429.676 L 483.26 429.676 L 489.799 429.43 L 489.799 427.145 L 489.799 427.145 Q 489.799 422.75 487.9 420.658 L 487.9 420.658 L 487.9 420.658 Q 486.002 418.566 481.818 418.566 L 481.818 418.566 L 481.818 418.566 Q 478.76 418.566 476.035 419.48 L 476.035 419.48 L 476.035 419.48 Q 473.311 420.395 470.92 421.52 L 470.92 421.52 L 468.986 416.773 L 468.986 416.773 Q 471.904 415.227 475.35 414.348 L 475.35 414.348 L 475.35 414.348 Q 478.795 413.469 482.17 413.469 L 482.17 413.469 L 482.17 413.469 Q 489.166 413.469 492.576 416.563 L 492.576 416.563 L 492.576 416.563 Q 495.986 419.656 495.986 426.406 L 495.986 426.406 L 495.986 452.703 Z  M 478.338 448.309 L 478.338 448.309 L 478.338 448.309 Q 483.646 448.309 486.688 445.443 L 486.688 445.443 L 486.688 445.443 Q 489.729 442.578 489.729 437.305 L 489.729 437.305 L 489.729 433.824 L 484.033 434.07 L 484.033 434.07 Q 477.389 434.316 474.348 436.18 L 474.348 436.18 L 474.348 436.18 Q 471.307 438.043 471.307 442.051 L 471.307 442.051 L 471.307 442.051 Q 471.307 445.074 473.152 446.691 L 473.152 446.691 L 473.152 446.691 Q 474.998 448.309 478.338 448.309 Z  M 509.268 398 L 509.268 452.703 L 502.939 452.703 L 502.939 398 L 509.268 398 Z " fill="rgb(0,0,0)"/></g></svg>