<svg width="302" height="92" viewBox="0 0 302 92" fill="none" xmlns="http://www.w3.org/2000/svg">
<path d="M167.594 74.9561H0.261719V80.1411H167.594V74.9561Z" fill="#96CCF3"/>
<path d="M301.743 86.5988H99.0563V91.7838H301.743V86.5988Z" fill="#96CCF3"/>
<path d="M41.611 66.3772H31.6041V37.4826C31.6041 33.8531 30.896 31.1663 29.4328 29.3751C27.9695 27.5839 25.6566 26.6883 22.494 26.6883C18.293 26.6883 15.2248 27.9139 13.2895 30.4121C11.3542 32.9103 10.363 37.0583 10.363 42.9504V66.3301H0.4505V19.3822H8.23889L9.65496 25.557C9.65496 25.557 13.5728 21.5976 16.1689 20.372C18.765 19.1465 21.6444 18.5337 24.8069 18.5337C36.0411 18.5337 41.6582 24.2844 41.6582 35.7385V66.3772H41.611Z" fill="black"/>
<path d="M80.9778 66.3772L79.1369 60.2495C79.1369 60.2495 77.9568 62.3235 71.8677 65.6702C69.6492 66.8957 66.6282 67.2257 63.0881 67.2257C58.5094 67.2257 54.922 66.0001 52.3259 63.5019C49.7298 61.0037 48.4553 57.4684 48.4553 52.9433C48.4553 48.0883 50.249 44.4588 53.8364 42.0077C57.4238 39.5566 62.8992 38.1896 70.2156 37.9539L78.2872 37.7183V35.1729C78.2872 32.1562 77.5792 29.9407 76.2103 28.4324C74.7942 26.924 72.6701 26.217 69.6964 26.217C67.2891 26.217 64.9762 26.5941 62.8048 27.3011C60.5863 28.0081 58.5094 28.8566 56.4797 29.7993L53.27 22.6817C55.8189 21.3619 58.6038 20.3249 61.6248 19.665C64.6457 18.9579 67.4779 18.628 70.1684 18.628C76.1159 18.628 80.6001 19.9478 83.6683 22.5403C86.6892 25.1328 88.1997 29.2337 88.1997 34.7958V66.4244H80.9778V66.3772ZM66.1562 59.5896C69.7436 59.5896 72.6701 58.5997 74.8414 56.5728C77.0128 54.546 78.0984 51.7178 78.0984 48.0411V43.9874L72.1037 44.2231C67.4307 44.4116 64.0321 45.1658 61.8608 46.5799C59.7367 47.994 58.651 50.1151 58.651 53.0376C58.651 55.1116 59.2647 56.7614 60.4919 57.8927C61.8136 59.0239 63.6545 59.5896 66.1562 59.5896Z" fill="black"/>
<path d="M160.466 66.3772L158.626 60.2495C158.626 60.2495 157.446 62.3235 151.356 65.6702C149.138 66.8957 146.117 67.2257 142.577 67.2257C137.998 67.2257 134.411 66.0001 131.815 63.5019C129.219 61.0037 127.944 57.4684 127.944 52.9433C127.944 48.0883 129.738 44.4588 133.325 42.0077C136.913 39.5566 142.388 38.1896 149.704 37.9539L157.776 37.7183V35.1729C157.776 32.1562 157.068 29.9407 155.699 28.4324C154.283 26.924 152.159 26.217 149.185 26.217C146.778 26.217 144.465 26.5941 142.294 27.3011C140.075 28.0081 137.998 28.8566 135.968 29.7993L132.759 22.6817C135.308 21.3619 138.093 20.3249 141.114 19.665C144.134 18.9579 146.967 18.628 149.657 18.628C155.605 18.628 160.089 19.9478 163.157 22.5403C166.178 25.1328 167.688 29.2337 167.688 34.7958V66.4244H160.466V66.3772ZM145.645 59.5896C149.232 59.5896 152.159 58.5997 154.33 56.5728C156.501 54.546 157.587 51.7178 157.587 48.0411V43.9874L151.592 44.2231C146.919 44.4116 143.521 45.1658 141.35 46.5799C139.225 47.994 138.14 50.1151 138.14 53.0376C138.14 55.1116 138.753 56.7614 139.981 57.8927C141.302 59.0239 143.19 59.5896 145.645 59.5896Z" fill="black"/>
<path d="M294.474 66.3772L292.633 60.2495C292.633 60.2495 291.453 62.3235 285.364 65.6702C283.145 66.8957 280.124 67.2257 276.584 67.2257C272.006 67.2257 268.418 66.0001 265.822 63.5019C263.226 61.0037 261.952 57.4684 261.952 52.9433C261.952 48.0883 263.745 44.4588 267.333 42.0077C270.92 39.5566 276.395 38.1896 283.712 37.9539L291.783 37.7183V35.1729C291.783 32.1562 291.075 29.9407 289.707 28.4324C288.29 26.924 286.166 26.217 283.193 26.217C280.785 26.217 278.472 26.5941 276.301 27.3011C274.083 28.0081 272.006 28.8566 269.976 29.7993L266.766 22.6817C269.315 21.3619 272.1 20.3249 275.121 19.665C278.142 18.9579 280.974 18.628 283.665 18.628C289.612 18.628 294.096 19.9478 297.165 22.5403C300.185 25.1328 301.696 29.2337 301.696 34.7958V66.4244H294.474V66.3772ZM279.652 59.5896C283.24 59.5896 286.166 58.5997 288.338 56.5728C290.509 54.546 291.595 51.7178 291.595 48.0411V43.9874L285.6 44.2231C280.927 44.4116 277.528 45.1658 275.357 46.5799C273.233 47.994 272.147 50.1151 272.147 53.0376C272.147 55.1116 272.761 56.7614 273.988 57.8927C275.31 59.0239 277.198 59.5896 279.652 59.5896Z" fill="black"/>
<path d="M115.624 59.1654C118.032 59.1654 120.486 58.7883 122.893 58.0341V65.5288C121.808 66.0001 120.392 66.4244 118.645 66.7543C116.899 67.0843 115.105 67.2257 113.264 67.2257C103.824 67.2257 99.1506 62.2292 99.1506 52.2834V26.9711H92.7783V19.4293H99.6227L101.275 8.91788H109.158V19.3822H122.469V26.924H109.158V52.0478C109.158 54.4517 109.771 56.2429 110.951 57.3742C112.084 58.5997 113.642 59.1654 115.624 59.1654Z" fill="black"/>
<path d="M209.227 52.9905C209.227 57.5627 207.574 61.0979 204.223 63.549C200.872 66.0001 196.104 67.2257 189.921 67.2257C183.69 67.2257 178.687 66.283 174.91 64.3975V55.7715C180.433 58.3169 185.531 59.5896 190.251 59.5896C196.388 59.5896 199.456 57.7513 199.456 54.0275C199.456 52.8491 199.125 51.8592 198.417 51.0579C197.756 50.2566 196.624 49.4552 195.066 48.6068C193.508 47.7583 191.337 46.8156 188.599 45.7315C183.218 43.6575 179.583 41.5363 177.648 39.4623C175.76 37.3883 174.769 34.6544 174.769 31.3077C174.769 27.3011 176.374 24.1429 179.631 21.9275C182.84 19.7121 187.277 18.5808 192.8 18.5808C198.323 18.5808 203.515 19.7121 208.424 21.9275L205.214 29.4222C200.164 27.3482 195.916 26.2641 192.47 26.2641C187.23 26.2641 184.587 27.7725 184.587 30.7892C184.587 32.2504 185.248 33.5231 186.617 34.513C187.986 35.55 190.959 36.9169 195.585 38.7081C199.456 40.2165 202.241 41.5834 203.987 42.809C205.734 44.0345 207.055 45.4958 207.858 47.0984C208.802 48.7953 209.227 50.7279 209.227 52.9905Z" fill="black"/>
<path d="M256.429 66.3772H246.422V37.4826C246.422 33.8531 245.714 31.1663 244.251 29.3751C242.787 27.5839 240.474 26.6883 237.312 26.6883C233.158 26.6883 230.09 27.961 228.107 30.4592C226.125 32.9575 225.181 37.1526 225.181 43.0447V66.3772H215.221V0.291885H225.181V17.0725C225.181 19.7593 224.992 22.6346 224.662 25.6984C224.662 25.6984 228.532 21.6918 230.94 20.4192C233.347 19.1936 236.179 18.5337 239.389 18.5337C250.717 18.5337 256.382 24.2844 256.382 35.7385V66.3772H256.429Z" fill="black"/>
</svg>
