<svg width="221" height="76" viewBox="0 0 221 76" fill="none" xmlns="http://www.w3.org/2000/svg">
<path d="M41.6305 74.5513H31.5817V45.7167C31.5817 42.0715 30.8339 39.4077 29.385 37.6318C27.9361 35.8559 25.5991 34.968 22.4676 34.968C18.2611 34.968 15.1764 36.2298 13.2134 38.7067C11.2503 41.1836 10.2688 45.3896 10.2688 51.2313V74.5981H0.313477V27.6308H8.11884L10.0351 33.7996C11.4373 31.5564 13.4471 29.8273 16.0644 28.6122C18.6818 27.3971 21.5329 26.7896 24.7111 26.7896C35.9751 26.7896 41.5838 32.5378 41.5838 43.9876V74.5513H41.6305Z" fill="black"/>
<path d="M81.5921 74.5513L79.2552 68.0086C77.0117 70.8594 74.7215 72.8222 72.4313 73.8503C70.1411 74.8785 67.1966 75.3925 63.5977 75.3925C58.9706 75.3925 55.3717 74.1307 52.8011 71.6538C50.2304 69.177 48.9218 65.6252 48.9218 61.0921C48.9218 56.2318 50.6978 52.5865 54.2967 50.1564C57.8956 47.6795 63.364 46.371 70.702 46.1373L78.8345 45.8569V43.3333C78.8345 40.3423 78.1335 38.0991 76.7313 36.6036C75.3291 35.1082 73.1792 34.3604 70.2346 34.3604C67.8509 34.3604 65.514 34.7343 63.3173 35.4353C61.1206 36.1363 58.9706 36.9775 56.9608 37.9589L53.7358 30.8087C56.2597 29.5001 59.0641 28.472 62.1021 27.771C65.1401 27.07 67.9912 26.7429 70.6553 26.7429C76.6378 26.7429 81.1247 28.0514 84.1628 30.6685C87.2008 33.2856 88.7432 37.3514 88.7432 42.9127V74.5513H81.5921V74.5513ZM66.7292 67.775C70.3748 67.775 73.2726 66.7468 75.4694 64.7373C77.6661 62.7277 78.7411 59.877 78.7411 56.2318V52.1659L72.7118 52.3996C67.9912 52.5865 64.5792 53.3343 62.476 54.7363C60.326 56.1383 59.251 58.288 59.251 61.1855C59.251 63.2885 59.8586 64.8775 61.1206 66.0458C62.3825 67.2142 64.2521 67.775 66.7292 67.775Z" fill="black"/>
<path d="M108.654 74.5513L90.8464 27.6307H101.363L110.897 54.9232C112.533 59.503 114.029 66.0458 114.029 66.0458C114.262 63.9895 115.478 60.2975 117.207 54.9232L126.742 27.6307H137.351L119.45 74.5513H108.654Z" fill="black"/>
<path d="M160.347 75.3925C153.056 75.3925 147.353 73.2428 143.24 68.99C139.127 64.7373 137.071 58.8488 137.071 51.4182C137.071 43.7539 138.987 37.7253 142.82 33.3323C146.652 28.9393 151.887 26.7429 158.571 26.7429C164.787 26.7429 169.648 28.6122 173.247 32.3976C176.846 36.183 178.622 41.3237 178.622 47.9132V53.3343H147.354C147.494 57.8674 148.709 61.3725 151.046 63.8493C153.383 66.2795 156.655 67.5413 160.861 67.5413C163.619 67.5413 166.236 67.2609 168.62 66.7468C171.003 66.2327 173.574 65.3448 176.332 64.1297V72.2146C173.901 73.383 171.424 74.1775 168.947 74.6915C166.376 75.1589 163.525 75.3925 160.347 75.3925ZM158.524 34.3137C155.346 34.3137 152.822 35.2951 150.906 37.3047C148.989 39.3142 147.868 42.2584 147.494 46.0906H168.807C168.76 42.2117 167.825 39.2675 166.002 37.3047C164.179 35.3418 161.656 34.3137 158.524 34.3137Z" fill="black"/>
<path d="M206.525 75.3925C199.42 75.3925 194.045 73.3363 190.353 69.177C186.661 65.0177 184.791 59.0825 184.791 51.3247C184.791 43.4268 186.707 37.3514 190.587 33.0986C194.466 28.8459 200.028 26.7429 207.319 26.7429C212.274 26.7429 216.714 27.6775 220.687 29.5001L217.695 37.5383C213.489 35.9026 209.983 35.0614 207.273 35.0614C199.14 35.0614 195.074 40.4358 195.074 51.2313C195.074 56.5122 196.102 60.4378 198.112 63.1016C200.122 65.7654 203.113 67.074 206.992 67.074C211.432 67.074 215.639 65.9523 219.612 63.7559V72.4951C217.835 73.5232 215.919 74.2709 213.909 74.7383C211.853 75.1589 209.376 75.3925 206.525 75.3925Z" fill="black"/>
<path d="M220.593 13.2836L192.269 0.992615L185.773 3.79663L207.506 13.2836H90.8464V18.4242H220.687V13.2836H220.593Z" fill="#96CCF3"/>
</svg>
