<?xml version="1.0" encoding="UTF-8" standalone="no"?><!-- Generator: Gravit.io --><svg xmlns="http://www.w3.org/2000/svg" xmlns:xlink="http://www.w3.org/1999/xlink" style="isolation:isolate" viewBox="88.922 147.055 263.978 46.224" width="263.978pt" height="46.224pt"><defs><clipPath id="_clipPath_BhCeX1eEmHHAchC8jQpTI4USV7djw4xf"><rect x="88.922" y="147.055" width="263.978" height="46.224"/></clipPath></defs><g clip-path="url(#_clipPath_BhCeX1eEmHHAchC8jQpTI4USV7djw4xf)"><path d=" M 88.922 147.758 L 95.074 147.758 L 95.285 152.539 L 95.285 152.539 Q 99.645 147.055 106.676 147.055 L 106.676 147.055 L 106.676 147.055 Q 118.734 147.055 118.84 160.66 L 118.84 160.66 L 118.84 185.797 L 112.336 185.797 L 112.336 160.625 L 112.336 160.625 Q 112.301 156.512 110.455 154.543 L 110.455 154.543 L 110.455 154.543 Q 108.609 152.574 104.707 152.574 L 104.707 152.574 L 104.707 152.574 Q 101.543 152.574 99.152 154.262 L 99.152 154.262 L 99.152 154.262 Q 96.762 155.949 95.426 158.691 L 95.426 158.691 L 95.426 185.797 L 88.922 185.797 L 88.922 147.758 Z  M 139.434 186.5 L 139.434 186.5 L 139.434 186.5 Q 131.699 186.5 126.848 181.42 L 126.848 181.42 L 126.848 181.42 Q 121.996 176.34 121.996 167.832 L 121.996 167.832 L 121.996 166.637 L 121.996 166.637 Q 121.996 160.977 124.158 156.529 L 124.158 156.529 L 124.158 156.529 Q 126.32 152.082 130.205 149.568 L 130.205 149.568 L 130.205 149.568 Q 134.09 147.055 138.625 147.055 L 138.625 147.055 L 138.625 147.055 Q 146.043 147.055 150.156 151.941 L 150.156 151.941 L 150.156 151.941 Q 154.27 156.828 154.27 165.934 L 154.27 165.934 L 154.27 168.641 L 128.5 168.641 L 128.5 168.641 Q 128.641 174.266 131.787 177.729 L 131.787 177.729 L 131.787 177.729 Q 134.934 181.191 139.785 181.191 L 139.785 181.191 L 139.785 181.191 Q 143.23 181.191 145.621 179.785 L 145.621 179.785 L 145.621 179.785 Q 148.012 178.379 149.805 176.059 L 149.805 176.059 L 153.777 179.152 L 153.777 179.152 Q 148.996 186.5 139.434 186.5 Z  M 138.625 152.398 L 138.625 152.398 L 138.625 152.398 Q 134.688 152.398 132.016 155.264 L 132.016 155.264 L 132.016 155.264 Q 129.344 158.129 128.711 163.297 L 128.711 163.297 L 147.766 163.297 L 147.766 162.805 L 147.766 162.805 Q 147.484 157.848 145.094 155.123 L 145.094 155.123 L 145.094 155.123 Q 142.703 152.398 138.625 152.398 Z  M 175.18 147.547 L 175.18 153.594 L 175.18 153.594 Q 173.703 153.348 171.98 153.348 L 171.98 153.348 L 171.98 153.348 Q 165.582 153.348 163.297 158.797 L 163.297 158.797 L 163.297 185.797 L 156.793 185.797 L 156.793 147.758 L 163.121 147.758 L 163.227 152.152 L 163.227 152.152 Q 166.426 147.055 172.297 147.055 L 172.297 147.055 L 172.297 147.055 Q 174.195 147.055 175.18 147.547 L 175.18 147.547 Z  M 199.781 185.797 L 199.641 182.035 L 199.641 182.035 Q 195.844 186.5 188.496 186.5 L 188.496 186.5 L 188.496 186.5 Q 182.414 186.5 179.232 182.967 L 179.232 182.967 L 179.232 182.967 Q 176.051 179.434 176.016 172.508 L 176.016 172.508 L 176.016 147.758 L 182.52 147.758 L 182.52 172.332 L 182.52 172.332 Q 182.52 180.98 189.551 180.98 L 189.551 180.98 L 189.551 180.98 Q 197.004 180.98 199.465 175.426 L 199.465 175.426 L 199.465 147.758 L 205.969 147.758 L 205.969 185.797 L 199.781 185.797 Z  M 232.996 175.707 L 232.996 175.707 L 232.996 175.707 Q 232.996 173.07 231.01 171.611 L 231.01 171.611 L 231.01 171.611 Q 229.023 170.152 224.084 169.098 L 224.084 169.098 L 224.084 169.098 Q 219.145 168.043 216.244 166.566 L 216.244 166.566 L 216.244 166.566 Q 213.344 165.09 211.955 163.051 L 211.955 163.051 L 211.955 163.051 Q 210.566 161.012 210.566 158.199 L 210.566 158.199 L 210.566 158.199 Q 210.566 153.523 214.521 150.289 L 214.521 150.289 L 214.521 150.289 Q 218.477 147.055 224.629 147.055 L 224.629 147.055 L 224.629 147.055 Q 231.098 147.055 235.123 150.395 L 235.123 150.395 L 235.123 150.395 Q 239.148 153.734 239.148 158.938 L 239.148 158.938 L 232.609 158.938 L 232.609 158.938 Q 232.609 156.266 230.342 154.332 L 230.342 154.332 L 230.342 154.332 Q 228.074 152.398 224.629 152.398 L 224.629 152.398 L 224.629 152.398 Q 221.078 152.398 219.074 153.945 L 219.074 153.945 L 219.074 153.945 Q 217.07 155.492 217.07 157.988 L 217.07 157.988 L 217.07 157.988 Q 217.07 160.344 218.934 161.539 L 218.934 161.539 L 218.934 161.539 Q 220.797 162.734 225.666 163.824 L 225.666 163.824 L 225.666 163.824 Q 230.535 164.914 233.559 166.426 L 233.559 166.426 L 233.559 166.426 Q 236.582 167.938 238.041 170.064 L 238.041 170.064 L 238.041 170.064 Q 239.5 172.191 239.5 175.25 L 239.5 175.25 L 239.5 175.25 Q 239.5 180.348 235.422 183.424 L 235.422 183.424 L 235.422 183.424 Q 231.344 186.5 224.84 186.5 L 224.84 186.5 L 224.84 186.5 Q 220.27 186.5 216.754 184.883 L 216.754 184.883 L 216.754 184.883 Q 213.238 183.266 211.252 180.365 L 211.252 180.365 L 211.252 180.365 Q 209.266 177.465 209.266 174.09 L 209.266 174.09 L 215.77 174.09 L 215.77 174.09 Q 215.945 177.359 218.389 179.275 L 218.389 179.275 L 218.389 179.275 Q 220.832 181.191 224.84 181.191 L 224.84 181.191 L 224.84 181.191 Q 228.531 181.191 230.764 179.697 L 230.764 179.697 L 230.764 179.697 Q 232.996 178.203 232.996 175.707 Z " fill="rgb(0,0,0)"/><path d=" M 320.078 175.841 L 320.078 175.841 L 320.078 175.841 Q 320.078 171.371 322.145 168.73 L 322.145 168.73 L 322.145 168.73 Q 324.212 166.089 327.622 166.089 L 327.622 166.089 L 327.622 166.089 Q 331.12 166.089 333.081 168.562 L 333.081 168.562 L 333.24 166.442 L 336.226 166.442 L 336.226 185.099 L 336.226 185.099 Q 336.226 188.809 334.026 190.946 L 334.026 190.946 L 334.026 190.946 Q 331.827 193.084 328.117 193.084 L 328.117 193.084 L 328.117 193.084 Q 326.05 193.084 324.071 192.201 L 324.071 192.201 L 324.071 192.201 Q 322.092 191.317 321.05 189.78 L 321.05 189.78 L 322.746 187.819 L 322.746 187.819 Q 324.848 190.416 327.887 190.416 L 327.887 190.416 L 327.887 190.416 Q 330.272 190.416 331.606 189.074 L 331.606 189.074 L 331.606 189.074 Q 332.94 187.731 332.94 185.293 L 332.94 185.293 L 332.94 183.65 L 332.94 183.65 Q 330.979 185.911 327.587 185.911 L 327.587 185.911 L 327.587 185.911 Q 324.23 185.911 322.154 183.208 L 322.154 183.208 L 322.154 183.208 Q 320.078 180.505 320.078 175.841 Z  M 323.364 176.212 L 323.364 176.212 L 323.364 176.212 Q 323.364 179.445 324.689 181.291 L 324.689 181.291 L 324.689 181.291 Q 326.014 183.138 328.4 183.138 L 328.4 183.138 L 328.4 183.138 Q 331.491 183.138 332.94 180.329 L 332.94 180.329 L 332.94 171.601 L 332.94 171.601 Q 331.438 168.863 328.435 168.863 L 328.435 168.863 L 328.435 168.863 Q 326.05 168.863 324.707 170.718 L 324.707 170.718 L 324.707 170.718 Q 323.364 172.573 323.364 176.212 Z  M 352.37 168.757 L 341.717 182.89 L 352.9 182.89 L 352.9 185.558 L 337.724 185.558 L 337.724 183.155 L 348.271 169.145 L 337.883 169.145 L 337.883 166.442 L 352.37 166.442 L 352.37 168.757 Z  M 249.84 166.442 L 253.108 166.442 L 253.108 187.766 L 253.108 187.766 Q 253.108 193.279 248.109 193.279 L 248.109 193.279 L 248.109 193.279 Q 247.031 193.279 246.112 192.961 L 246.112 192.961 L 246.112 190.346 L 246.112 190.346 Q 246.678 190.487 247.596 190.487 L 247.596 190.487 L 247.596 190.487 Q 248.692 190.487 249.266 189.895 L 249.266 189.895 L 249.266 189.895 Q 249.84 189.303 249.84 187.837 L 249.84 187.837 L 249.84 166.442 Z  M 249.504 161.372 L 249.504 161.372 L 249.504 161.372 Q 249.504 160.594 249.99 160.038 L 249.99 160.038 L 249.99 160.038 Q 250.476 159.481 251.412 159.481 L 251.412 159.481 L 251.412 159.481 Q 252.366 159.481 252.861 160.029 L 252.861 160.029 L 252.861 160.029 Q 253.356 160.577 253.356 161.372 L 253.356 161.372 L 253.356 161.372 Q 253.356 162.167 252.861 162.697 L 252.861 162.697 L 252.861 162.697 Q 252.366 163.227 251.412 163.227 L 251.412 163.227 L 251.412 163.227 Q 250.458 163.227 249.981 162.697 L 249.981 162.697 L 249.981 162.697 Q 249.504 162.167 249.504 161.372 Z  M 266.991 180.488 L 266.991 180.488 L 266.991 180.488 Q 266.991 179.163 265.993 178.429 L 265.993 178.429 L 265.993 178.429 Q 264.994 177.696 262.512 177.166 L 262.512 177.166 L 262.512 177.166 Q 260.03 176.636 258.573 175.894 L 258.573 175.894 L 258.573 175.894 Q 257.115 175.152 256.417 174.127 L 256.417 174.127 L 256.417 174.127 Q 255.719 173.103 255.719 171.689 L 255.719 171.689 L 255.719 171.689 Q 255.719 169.34 257.707 167.714 L 257.707 167.714 L 257.707 167.714 Q 259.694 166.089 262.786 166.089 L 262.786 166.089 L 262.786 166.089 Q 266.037 166.089 268.06 167.767 L 268.06 167.767 L 268.06 167.767 Q 270.083 169.446 270.083 172.06 L 270.083 172.06 L 266.797 172.06 L 266.797 172.06 Q 266.797 170.718 265.657 169.746 L 265.657 169.746 L 265.657 169.746 Q 264.517 168.774 262.786 168.774 L 262.786 168.774 L 262.786 168.774 Q 261.002 168.774 259.995 169.552 L 259.995 169.552 L 259.995 169.552 Q 258.988 170.329 258.988 171.583 L 258.988 171.583 L 258.988 171.583 Q 258.988 172.767 259.924 173.368 L 259.924 173.368 L 259.924 173.368 Q 260.86 173.968 263.307 174.516 L 263.307 174.516 L 263.307 174.516 Q 265.754 175.064 267.274 175.823 L 267.274 175.823 L 267.274 175.823 Q 268.793 176.583 269.526 177.652 L 269.526 177.652 L 269.526 177.652 Q 270.259 178.721 270.259 180.258 L 270.259 180.258 L 270.259 180.258 Q 270.259 182.82 268.21 184.365 L 268.21 184.365 L 268.21 184.365 Q 266.161 185.911 262.892 185.911 L 262.892 185.911 L 262.892 185.911 Q 260.595 185.911 258.829 185.099 L 258.829 185.099 L 258.829 185.099 Q 257.062 184.286 256.064 182.828 L 256.064 182.828 L 256.064 182.828 Q 255.066 181.371 255.066 179.675 L 255.066 179.675 L 258.334 179.675 L 258.334 179.675 Q 258.422 181.318 259.65 182.281 L 259.65 182.281 L 259.65 182.281 Q 260.878 183.244 262.892 183.244 L 262.892 183.244 L 262.892 183.244 Q 264.747 183.244 265.869 182.493 L 265.869 182.493 L 265.869 182.493 Q 266.991 181.742 266.991 180.488 Z  M 271.139 176.053 L 271.139 175.823 L 271.139 175.823 Q 271.139 173.014 272.243 170.771 L 272.243 170.771 L 272.243 170.771 Q 273.347 168.527 275.317 167.308 L 275.317 167.308 L 275.317 167.308 Q 277.287 166.089 279.813 166.089 L 279.813 166.089 L 279.813 166.089 Q 283.718 166.089 286.129 168.792 L 286.129 168.792 L 286.129 168.792 Q 288.541 171.495 288.541 175.982 L 288.541 175.982 L 288.541 176.212 L 288.541 176.212 Q 288.541 179.004 287.472 181.221 L 287.472 181.221 L 287.472 181.221 Q 286.403 183.438 284.415 184.675 L 284.415 184.675 L 284.415 184.675 Q 282.428 185.911 279.849 185.911 L 279.849 185.911 L 279.849 185.911 Q 275.962 185.911 273.55 183.208 L 273.55 183.208 L 273.55 183.208 Q 271.139 180.505 271.139 176.053 L 271.139 176.053 Z  M 274.425 176.212 L 274.425 176.212 L 274.425 176.212 Q 274.425 179.392 275.9 181.318 L 275.9 181.318 L 275.9 181.318 Q 277.375 183.244 279.849 183.244 L 279.849 183.244 L 279.849 183.244 Q 282.34 183.244 283.806 181.291 L 283.806 181.291 L 283.806 181.291 Q 285.272 179.339 285.272 175.823 L 285.272 175.823 L 285.272 175.823 Q 285.272 172.679 283.779 170.727 L 283.779 170.727 L 283.779 170.727 Q 282.287 168.774 279.813 168.774 L 279.813 168.774 L 279.813 168.774 Q 277.393 168.774 275.909 170.7 L 275.909 170.7 L 275.909 170.7 Q 274.425 172.626 274.425 176.212 Z  M 290.127 166.442 L 293.219 166.442 L 293.325 168.845 L 293.325 168.845 Q 295.515 166.089 299.049 166.089 L 299.049 166.089 L 299.049 166.089 Q 305.108 166.089 305.161 172.926 L 305.161 172.926 L 305.161 185.558 L 301.893 185.558 L 301.893 172.908 L 301.893 172.908 Q 301.875 170.841 300.948 169.852 L 300.948 169.852 L 300.948 169.852 Q 300.02 168.863 298.059 168.863 L 298.059 168.863 L 298.059 168.863 Q 296.469 168.863 295.268 169.711 L 295.268 169.711 L 295.268 169.711 Q 294.067 170.559 293.395 171.937 L 293.395 171.937 L 293.395 185.558 L 290.127 185.558 L 290.127 166.442 Z  M 311.129 158.421 L 311.129 185.558 L 307.861 185.558 L 307.861 158.421 L 311.129 158.421 Z  M 313.916 183.844 L 313.916 183.844 L 313.916 183.844 Q 313.916 182.996 314.42 182.431 L 314.42 182.431 L 314.42 182.431 Q 314.923 181.866 315.931 181.866 L 315.931 181.866 L 315.931 181.866 Q 316.938 181.866 317.459 182.431 L 317.459 182.431 L 317.459 182.431 Q 317.98 182.996 317.98 183.844 L 317.98 183.844 L 317.98 183.844 Q 317.98 184.657 317.459 185.205 L 317.459 185.205 L 317.459 185.205 Q 316.938 185.752 315.931 185.752 L 315.931 185.752 L 315.931 185.752 Q 314.923 185.752 314.42 185.205 L 314.42 185.205 L 314.42 185.205 Q 313.916 184.657 313.916 183.844 Z  M 242.795 183.844 L 242.795 183.844 L 242.795 183.844 Q 242.795 182.996 243.298 182.431 L 243.298 182.431 L 243.298 182.431 Q 243.802 181.866 244.809 181.866 L 244.809 181.866 L 244.809 181.866 Q 245.816 181.866 246.337 182.431 L 246.337 182.431 L 246.337 182.431 Q 246.858 182.996 246.858 183.844 L 246.858 183.844 L 246.858 183.844 Q 246.858 184.657 246.337 185.205 L 246.337 185.205 L 246.337 185.205 Q 245.816 185.752 244.809 185.752 L 244.809 185.752 L 244.809 185.752 Q 243.802 185.752 243.298 185.205 L 243.298 185.205 L 243.298 185.205 Q 242.795 184.657 242.795 183.844 Z " fill="rgb(189,189,189)"/></g></svg>