<svg width="314" height="50" viewBox="0 0 314 50" fill="none" xmlns="http://www.w3.org/2000/svg">
<path d="M41.6661 48.4142H31.5926V19.3384C31.5926 15.6686 30.8429 12.9869 29.3905 11.199C27.938 9.41118 25.5953 8.51727 22.4561 8.51727C18.2393 8.51727 15.147 9.78757 13.1791 12.2811C11.2113 14.7747 10.2274 19.009 10.2274 24.8901V48.4142H0.247528V1.13068H8.07208L9.99308 7.34106C11.3987 5.08274 13.4134 3.34195 16.0372 2.1187C18.661 0.895441 21.5191 0.283813 24.7051 0.283813C35.9968 0.283813 41.6193 6.07075 41.6193 17.5976V48.4142H41.6661Z" fill="black"/>
<path d="M70.9497 49.2611C63.6405 49.2611 57.9244 47.0969 53.8013 42.8155C49.6781 38.5341 47.6166 32.606 47.6166 25.1253C47.6166 17.4094 49.5376 11.3402 53.3796 6.91762C57.1747 2.49508 62.4223 0.283813 69.1224 0.283813C75.3539 0.283813 80.2267 2.16575 83.8344 5.97666C87.4422 9.78757 89.2226 14.9629 89.2226 21.5967V27.0072H57.8775C58.0181 31.5709 59.2363 35.0996 61.579 37.5931C63.9216 40.0396 67.2014 41.3099 71.4182 41.3099C74.1826 41.3099 76.8064 41.0276 79.1959 40.5101C81.5855 39.9926 84.1624 39.0987 86.9268 37.8754V46.0148C84.4904 47.191 82.0072 47.9908 79.5239 48.5083C77.0407 49.0259 74.1826 49.2611 70.9497 49.2611ZM69.1224 7.90564C65.9364 7.90564 63.4063 8.9407 61.4853 10.9167C59.5643 12.9398 58.4398 15.9039 58.0649 19.7618H79.4302C79.3833 15.8568 78.4463 12.8928 76.619 10.9167C74.7917 8.89365 72.3084 7.90564 69.1224 7.90564Z" fill="black"/>
<path d="M118.881 0.283813C120.895 0.283813 122.535 0.424958 123.847 0.707248L122.863 10.0699C121.458 9.74052 119.958 9.55233 118.459 9.55233C114.477 9.55233 111.197 10.8697 108.714 13.5044C106.23 16.1391 105.012 19.5266 105.012 23.7139V48.4142H95.0323V1.13068H102.857L104.684 9.45823C106.23 6.63533 108.292 4.42406 110.775 2.73032C113.258 1.13068 115.976 0.283813 118.881 0.283813Z" fill="black"/>
<path d="M162.97 48.4142L161.049 42.2038C159.644 44.4151 157.676 46.1088 155.099 47.3791C152.522 48.6494 149.617 49.261 146.29 49.261C140.574 49.261 136.311 47.8496 133.546 44.9796C130.735 42.1097 129.329 37.8283 129.329 32.0414V1.13062H139.403V30.2535C139.403 33.8762 140.153 36.605 141.605 38.3929C143.057 40.1807 145.4 41.1217 148.539 41.1217C152.756 41.1217 155.802 39.8514 157.816 37.3578C159.784 34.8172 160.768 30.6299 160.768 24.7018V1.17766H170.795V48.4142H162.97V48.4142Z" fill="black"/>
<path d="M211.089 34.9584C211.089 39.5691 209.402 43.0978 206.075 45.5913C202.749 48.0378 197.923 49.3081 191.691 49.3081C185.413 49.3081 180.4 48.3672 176.605 46.4382V37.7343C182.133 40.2749 187.287 41.5922 192.066 41.5922C198.204 41.5922 201.296 39.7103 201.296 35.9935C201.296 34.8173 200.968 33.7822 200.266 32.9824C199.563 32.1826 198.485 31.3357 196.892 30.4888C195.299 29.642 193.144 28.6539 190.38 27.5718C184.945 25.4547 181.29 23.3375 179.369 21.2674C177.448 19.1502 176.511 16.4214 176.511 13.081C176.511 9.03481 178.151 5.88257 181.384 3.6713C184.617 1.41298 189.068 0.330872 194.643 0.330872C200.172 0.330872 205.42 1.46003 210.339 3.71835L207.106 11.2931C202.046 9.17595 197.736 8.14089 194.315 8.14089C189.021 8.14089 186.397 9.64643 186.397 12.6575C186.397 14.116 187.1 15.3863 188.459 16.4214C189.817 17.4565 192.816 18.8679 197.454 20.6557C201.343 22.1613 204.154 23.5257 205.935 24.796C207.715 26.0663 208.98 27.4777 209.871 29.1244C210.667 30.7241 211.089 32.653 211.089 34.9584Z" fill="black"/>
<path d="M214.65 46.2499C214.65 45.403 214.884 44.7914 215.306 44.368C215.728 43.9445 216.337 43.7093 217.18 43.7093C218.023 43.7093 218.632 43.9445 219.054 44.415C219.476 44.8855 219.71 45.4971 219.71 46.2969C219.71 47.0968 219.476 47.7554 219.054 48.2259C218.632 48.6964 217.977 48.9316 217.18 48.9316C216.383 48.9316 215.728 48.6964 215.306 48.2259C214.837 47.7084 214.65 47.0968 214.65 46.2499Z" fill="#96CCF3"/>
<path d="M232.314 48.7435C229.503 48.7435 227.347 47.8966 225.848 46.2499C224.395 44.6032 223.646 42.2038 223.646 39.0986C223.646 35.9464 224.395 33.4999 225.942 31.8061C227.488 30.1124 229.69 29.2655 232.642 29.2655C234.61 29.2655 236.39 29.6419 237.983 30.3476L236.765 33.5469C235.078 32.8882 233.672 32.5589 232.595 32.5589C229.362 32.5589 227.722 34.7231 227.722 39.0516C227.722 41.1687 228.144 42.7213 228.94 43.8034C229.737 44.8855 230.908 45.4031 232.501 45.4031C234.282 45.4031 235.968 44.9796 237.514 44.0857V47.5673C236.812 47.9907 236.062 48.273 235.219 48.4612C234.422 48.6494 233.438 48.7435 232.314 48.7435Z" fill="#96CCF3"/>
<path d="M257.146 38.9574C257.146 42.0155 256.35 44.415 254.803 46.1558C253.257 47.8966 251.055 48.7434 248.244 48.7434C246.51 48.7434 244.964 48.367 243.605 47.5672C242.247 46.7674 241.216 45.6382 240.513 44.1327C239.81 42.6271 239.435 40.9334 239.435 38.9574C239.435 35.8992 240.232 33.5468 241.778 31.806C243.324 30.0653 245.526 29.2184 248.384 29.2184C251.102 29.2184 253.257 30.1123 254.803 31.8531C256.35 33.6409 257.146 35.9933 257.146 38.9574ZM243.512 38.9574C243.512 43.2858 245.105 45.45 248.291 45.45C251.43 45.45 253.023 43.2858 253.023 38.9574C253.023 34.676 251.43 32.5118 248.244 32.5118C246.557 32.5118 245.386 33.0763 244.589 34.1585C243.886 35.2876 243.512 36.8873 243.512 38.9574Z" fill="#96CCF3"/>
<path d="M276.309 48.4141H272.327V36.8402C272.327 35.3817 272.045 34.2996 271.436 33.5939C270.827 32.8882 269.937 32.5118 268.672 32.5118C266.985 32.5118 265.767 33.0293 264.971 34.0173C264.174 35.0053 263.799 36.6991 263.799 39.0515V48.4141H259.817V29.5948H262.909L263.659 32.0413C264.221 31.1474 265.017 30.4416 266.048 29.9712C267.079 29.5007 268.25 29.2184 269.515 29.2184C274.013 29.2184 276.262 31.5238 276.262 36.0874V48.4141H276.309Z" fill="#96CCF3"/>
<path d="M284.415 48.4141H280.432V21.9259H284.415V48.4141Z" fill="#96CCF3"/>
<path d="M292.661 48.4141H288.679V21.9259H292.661V48.4141Z" fill="#96CCF3"/>
<path d="M310.606 48.4143L309.856 45.9678C309.294 46.8617 308.498 47.5204 307.514 48.0379C306.53 48.5554 305.312 48.7907 304 48.7907C301.751 48.7907 300.017 48.2261 298.94 47.0969C297.815 45.9678 297.253 44.227 297.253 41.9687V29.595H301.282V41.1689C301.282 42.6274 301.563 43.7095 302.172 44.4152C302.782 45.1209 303.672 45.4973 304.937 45.4973C306.624 45.4973 307.842 44.9798 308.638 43.9918C309.435 43.0037 309.81 41.31 309.81 38.9576V29.595H313.792V48.4143H310.606Z" fill="#96CCF3"/>
</svg>
