<svg width="247" height="81" viewBox="0 0 247 81" fill="none" xmlns="http://www.w3.org/2000/svg">
<path d="M24.3746 18.6617C26.4053 18.6617 28.0582 18.8026 29.3805 19.0845L28.3888 28.4339C26.972 28.105 25.4608 27.9171 23.9496 27.9171C19.9355 27.9171 16.6297 29.2325 14.1268 31.8635C11.6239 34.4945 10.396 37.8771 10.396 42.0585V66.7238H0.289856V19.5074H8.17644L10.0182 27.8231C11.5766 25.0042 13.6545 22.7961 16.1575 21.1047C18.7076 19.4604 21.4467 18.6617 24.3746 18.6617Z" fill="black"/>
<path d="M63.5715 66.6768L61.2102 60.0994C58.9434 62.9653 56.6294 64.9385 54.3154 65.9721C52.0013 67.0057 49.0262 67.5225 45.3898 67.5225C40.7145 67.5225 37.0782 66.254 34.4808 63.764C31.8835 61.274 30.5612 57.7034 30.5612 53.1461C30.5612 48.2601 32.3557 44.5955 35.992 42.1525C39.6284 39.6624 45.1537 38.347 52.568 38.112L60.738 37.8771V35.3401C60.738 32.3333 60.0296 30.0782 58.6128 28.5748C57.1961 27.0714 55.0237 26.3197 52.0486 26.3197C49.6401 26.3197 47.2788 26.6955 45.0593 27.4003C42.8397 28.105 40.6673 28.9506 38.6366 29.9373L35.3781 22.7491C37.9283 21.4336 40.7618 20.4 43.8314 19.6953C46.901 18.9906 49.7818 18.6617 52.4736 18.6617C58.5184 18.6617 63.052 19.9772 66.1216 22.6081C69.1913 25.2391 70.7497 29.3265 70.7497 34.9173V66.7238H63.5715V66.6768ZM48.6011 59.8645C52.2847 59.8645 55.2126 58.8309 57.4322 56.8107C59.6518 54.7905 60.738 51.9246 60.738 48.2601V44.1727L54.6459 44.4076C49.8762 44.5955 46.4288 45.3472 44.3036 46.7567C42.1313 48.1661 41.0451 50.3273 41.0451 53.2401C41.0451 55.3543 41.659 56.9517 42.9341 58.1262C44.162 59.3007 46.051 59.8645 48.6011 59.8645Z" fill="black"/>
<path d="M113.252 66.6768H77.2667V60.4752L101.257 27.1653H78.7307V19.5073H112.591V26.5076L89.1202 59.0188H113.252V66.6768Z" fill="black"/>
<path d="M123.5 5.36591H130.112V80.7243H123.5" fill="#96CCF3"/>
<path d="M157.691 67.5225C151.788 67.5225 147.16 65.4083 143.854 61.133C140.548 56.8577 138.895 50.891 138.895 43.186C138.895 35.4341 140.595 29.4204 143.948 25.0981C147.301 20.7758 151.977 18.6147 157.927 18.6147C164.161 18.6147 169.403 20.9168 172.661 25.474C172.189 22.0913 171.953 19.4134 171.953 17.4401V0.29187H182.059V66.6768H174.172L172.425 60.4753H171.953C168.647 65.1734 163.925 67.5225 157.691 67.5225ZM160.383 59.4417C164.539 59.4417 167.561 58.2671 169.45 55.965C171.339 53.6629 172.331 49.9044 172.378 44.6895V43.28C172.378 37.3133 171.386 33.132 169.45 30.595C167.514 28.105 164.444 26.8365 160.336 26.8365C156.794 26.8365 154.055 28.2459 152.166 31.1118C150.229 33.9777 149.285 38.0651 149.285 43.327C149.285 48.5419 150.229 52.5354 152.071 55.3073C153.913 58.0792 156.699 59.4417 160.383 59.4417Z" fill="black"/>
<path d="M211.953 67.5225C204.585 67.5225 198.824 65.3613 194.668 61.086C190.512 56.8107 188.434 50.891 188.434 43.421C188.434 35.716 190.371 29.6554 194.243 25.2391C198.116 20.8228 203.405 18.6147 210.158 18.6147C216.439 18.6147 221.35 20.4939 224.987 24.2995C228.623 28.105 230.418 33.2729 230.418 39.8973V45.3002H198.824C198.966 49.8574 200.193 53.3811 202.555 55.8711C204.916 58.3141 208.222 59.5826 212.472 59.5826C215.258 59.5826 217.903 59.3007 220.311 58.7839C222.72 58.2671 225.317 57.3745 228.104 56.153V64.2808C225.648 65.4553 223.145 66.254 220.642 66.7708C218.045 67.2876 215.164 67.5225 211.953 67.5225ZM210.111 26.2257C206.899 26.2257 204.349 27.2123 202.413 29.2325C200.477 31.2527 199.343 34.2126 198.966 38.0651H220.5C220.453 34.1656 219.509 31.2057 217.667 29.2325C215.825 27.2593 213.322 26.2257 210.111 26.2257Z" fill="black"/>
<path d="M246.71 66.6768H236.651V0.29187H246.71V66.6768Z" fill="black"/>
</svg>
