<?xml version="1.0" encoding="UTF-8" standalone="no"?><!-- Generator: Gravit.io --><svg xmlns="http://www.w3.org/2000/svg" xmlns:xlink="http://www.w3.org/1999/xlink" style="isolation:isolate" viewBox="120.11 75.412 171.164 60.907" width="171.164pt" height="60.907pt"><defs><clipPath id="_clipPath_9bbQ4coieyMo89CuvuoItlT1q6iIRRgE"><rect x="120.11" y="75.412" width="171.164" height="60.907"/></clipPath></defs><g clip-path="url(#_clipPath_9bbQ4coieyMo89CuvuoItlT1q6iIRRgE)"><path d=" M 213.876 110.568 L 213.876 110.076 L 213.876 110.076 Q 213.876 101.322 218.024 95.996 L 218.024 95.996 L 218.024 95.996 Q 222.173 90.67 228.888 90.67 L 228.888 90.67 L 228.888 90.67 Q 235.567 90.67 239.47 95.24 L 239.47 95.24 L 239.47 75.412 L 245.974 75.412 L 245.974 129.412 L 239.997 129.412 L 239.681 125.334 L 239.681 125.334 Q 235.778 130.115 228.817 130.115 L 228.817 130.115 L 228.817 130.115 Q 222.208 130.115 218.042 124.701 L 218.042 124.701 L 218.042 124.701 Q 213.876 119.287 213.876 110.568 L 213.876 110.568 Z  M 220.38 110.814 L 220.38 110.814 L 220.38 110.814 Q 220.38 117.283 223.052 120.939 L 223.052 120.939 L 223.052 120.939 Q 225.724 124.596 230.434 124.596 L 230.434 124.596 L 230.434 124.596 Q 236.622 124.596 239.47 119.041 L 239.47 119.041 L 239.47 101.568 L 239.47 101.568 Q 236.552 96.189 230.505 96.189 L 230.505 96.189 L 230.505 96.189 Q 225.724 96.189 223.052 99.881 L 223.052 99.881 L 223.052 99.881 Q 220.38 103.572 220.38 110.814 Z  M 266.849 130.115 L 266.849 130.115 L 266.849 130.115 Q 259.114 130.115 254.263 125.035 L 254.263 125.035 L 254.263 125.035 Q 249.411 119.955 249.411 111.447 L 249.411 111.447 L 249.411 110.252 L 249.411 110.252 Q 249.411 104.592 251.573 100.145 L 251.573 100.145 L 251.573 100.145 Q 253.735 95.697 257.62 93.184 L 257.62 93.184 L 257.62 93.184 Q 261.505 90.67 266.04 90.67 L 266.04 90.67 L 266.04 90.67 Q 273.458 90.67 277.571 95.557 L 277.571 95.557 L 277.571 95.557 Q 281.684 100.443 281.684 109.549 L 281.684 109.549 L 281.684 112.256 L 255.915 112.256 L 255.915 112.256 Q 256.056 117.881 259.202 121.344 L 259.202 121.344 L 259.202 121.344 Q 262.349 124.807 267.2 124.807 L 267.2 124.807 L 267.2 124.807 Q 270.645 124.807 273.036 123.4 L 273.036 123.4 L 273.036 123.4 Q 275.427 121.994 277.22 119.674 L 277.22 119.674 L 281.192 122.768 L 281.192 122.768 Q 276.411 130.115 266.849 130.115 Z  M 266.04 96.014 L 266.04 96.014 L 266.04 96.014 Q 262.102 96.014 259.431 98.879 L 259.431 98.879 L 259.431 98.879 Q 256.759 101.744 256.126 106.912 L 256.126 106.912 L 275.181 106.912 L 275.181 106.42 L 275.181 106.42 Q 274.899 101.463 272.509 98.738 L 272.509 98.738 L 272.509 98.738 Q 270.118 96.014 266.04 96.014 Z  M 291.274 75.412 L 291.274 129.412 L 284.77 129.412 L 284.77 75.412 L 291.274 75.412 Z  M 138.497 91.162 L 138.497 97.209 L 138.497 97.209 Q 137.02 96.963 135.298 96.963 L 135.298 96.963 L 135.298 96.963 Q 128.899 96.963 126.614 102.412 L 126.614 102.412 L 126.614 129.412 L 120.11 129.412 L 120.11 91.373 L 126.438 91.373 L 126.544 95.768 L 126.544 95.768 Q 129.743 90.67 135.614 90.67 L 135.614 90.67 L 135.614 90.67 Q 137.513 90.67 138.497 91.162 L 138.497 91.162 Z  M 168.372 129.412 L 161.552 129.412 L 161.552 129.412 Q 160.989 128.287 160.638 125.404 L 160.638 125.404 L 160.638 125.404 Q 156.102 130.115 149.809 130.115 L 149.809 130.115 L 149.809 130.115 Q 144.184 130.115 140.581 126.934 L 140.581 126.934 L 140.581 126.934 Q 136.977 123.752 136.977 118.865 L 136.977 118.865 L 136.977 118.865 Q 136.977 112.924 141.495 109.637 L 141.495 109.637 L 141.495 109.637 Q 146.013 106.35 154.204 106.35 L 154.204 106.35 L 160.532 106.35 L 160.532 103.361 L 160.532 103.361 Q 160.532 99.951 158.493 97.93 L 158.493 97.93 L 158.493 97.93 Q 156.454 95.908 152.481 95.908 L 152.481 95.908 L 152.481 95.908 Q 149.001 95.908 146.645 97.666 L 146.645 97.666 L 146.645 97.666 Q 144.29 99.424 144.29 101.92 L 144.29 101.92 L 137.751 101.92 L 137.751 101.92 Q 137.751 99.072 139.772 96.418 L 139.772 96.418 L 139.772 96.418 Q 141.794 93.764 145.257 92.217 L 145.257 92.217 L 145.257 92.217 Q 148.72 90.67 152.868 90.67 L 152.868 90.67 L 152.868 90.67 Q 159.442 90.67 163.169 93.957 L 163.169 93.957 L 163.169 93.957 Q 166.895 97.244 167.036 103.01 L 167.036 103.01 L 167.036 120.518 L 167.036 120.518 Q 167.036 125.756 168.372 128.85 L 168.372 128.85 L 168.372 129.412 Z  M 150.759 124.455 L 150.759 124.455 L 150.759 124.455 Q 153.817 124.455 156.559 122.873 L 156.559 122.873 L 156.559 122.873 Q 159.302 121.291 160.532 118.76 L 160.532 118.76 L 160.532 110.955 L 155.434 110.955 L 155.434 110.955 Q 143.481 110.955 143.481 117.951 L 143.481 117.951 L 143.481 117.951 Q 143.481 121.01 145.52 122.732 L 145.52 122.732 L 145.52 122.732 Q 147.559 124.455 150.759 124.455 Z  M 199.548 95.979 L 178.349 124.104 L 200.602 124.104 L 200.602 129.412 L 170.403 129.412 L 170.403 124.631 L 191.392 96.752 L 170.72 96.752 L 170.72 91.373 L 199.548 91.373 L 199.548 95.979 Z " fill="rgb(0,0,0)"/><path d=" M 210.368 133.958 L 210.368 136.319 L 204.068 136.319 L 204.068 133.958 L 204.068 77.773 L 204.068 75.412 L 210.368 75.412 L 210.368 77.773 L 210.368 133.958 Z " fill="rgb(144,202,249)"/></g></svg>