<svg width="339" height="82" viewBox="0 0 339 82" fill="none" xmlns="http://www.w3.org/2000/svg">
<path d="M35.4171 53.9726C35.4171 58.6151 33.7277 62.168 30.3958 64.6788C27.0639 67.1421 22.2303 68.4212 15.9889 68.4212C9.70051 68.4212 4.67921 67.4738 0.878036 65.5315V56.8149C6.41554 59.3731 11.5776 60.6995 16.3643 60.6995C22.5119 60.6995 25.6091 58.8046 25.6091 55.0622C25.6091 53.8778 25.2806 52.8357 24.5767 52.0303C23.8728 51.225 22.7934 50.3723 21.1979 49.5196C19.6492 48.6669 17.4436 47.672 14.6749 46.5825C9.23123 44.4507 5.57084 42.319 3.64679 40.2346C1.72274 38.1028 0.78418 35.3552 0.78418 31.9444C0.78418 27.8703 2.42666 24.6964 5.66469 22.4699C8.90273 20.196 13.3609 19.1064 18.9453 19.1064C24.4828 19.1064 29.7388 20.2434 34.6662 22.5173L31.4282 30.1442C26.36 28.0125 22.0426 26.9703 18.6168 26.9703C13.314 26.9703 10.686 28.4862 10.686 31.518C10.686 32.9866 11.3899 34.2656 12.7508 35.3078C14.1117 36.35 17.1151 37.7712 21.761 39.5714C25.656 41.0399 28.4717 42.4137 30.255 43.6928C32.0382 44.9718 33.3053 46.393 34.1969 48.051C35.0886 49.7091 35.4171 51.6987 35.4171 53.9726Z" fill="black"/>
<path d="M52.4989 67.5211H42.5032V0.583778H52.4989V67.5211Z" fill="black"/>
<path d="M104.448 43.6454C104.448 51.4145 102.477 57.4782 98.5353 61.8364C94.5933 66.1947 89.1028 68.3738 82.0635 68.3738C77.6523 68.3738 73.7573 67.379 70.3785 65.342C66.9996 63.3524 64.4186 60.4626 62.5884 56.6728C60.7582 52.9304 59.8666 48.5721 59.8666 43.598C59.8666 35.8763 61.8376 29.86 65.7326 25.5491C69.6745 21.2382 75.1651 19.0591 82.2982 19.0591C89.1028 19.0591 94.4995 21.2856 98.4884 25.6912C102.43 30.1442 104.448 36.1132 104.448 43.6454ZM70.0969 43.6454C70.0969 54.6358 74.1327 60.131 82.1574 60.131C90.1352 60.131 94.0771 54.6358 94.0771 43.6454C94.0771 32.7971 90.0882 27.3493 82.0635 27.3493C77.84 27.3493 74.7897 28.7704 72.9126 31.5654C71.0824 34.3604 70.0969 38.387 70.0969 43.6454Z" fill="black"/>
<path d="M123.407 67.5211L105.481 19.9591H116.039L125.613 47.6247C127.255 52.2672 128.241 56.0096 128.616 58.8993H128.945C129.179 56.8149 130.212 53.0725 131.948 47.6247L141.568 19.9591H152.221L134.248 67.5211H123.407Z" fill="black"/>
<path d="M198.492 67.5211H188.449V38.2923C188.449 34.5972 187.699 31.897 186.244 30.0969C184.789 28.2967 182.443 27.3966 179.298 27.3966C175.075 27.3966 171.978 28.6757 170.007 31.1864C168.036 33.6972 167.05 37.9607 167.05 43.8823V67.5685H157.055V19.9591H164.892L166.816 26.2123C168.223 23.9384 170.241 22.1856 172.869 20.954C175.497 19.7223 178.36 19.1064 181.551 19.1064C192.861 19.1064 198.492 24.9332 198.492 36.5395V67.5211Z" fill="black"/>
<path d="M228.291 68.3738C220.971 68.3738 215.245 66.1947 211.116 61.8838C206.986 57.5729 204.921 51.604 204.921 44.0718C204.921 36.3027 206.845 30.1916 210.693 25.7386C214.541 21.2856 219.797 19.0591 226.508 19.0591C232.749 19.0591 237.63 20.954 241.243 24.7911C244.857 28.6283 246.64 33.8393 246.64 40.5188V45.9667H215.245C215.386 50.5618 216.606 54.1147 218.953 56.6255C221.299 59.0888 224.584 60.3679 228.808 60.3679C231.576 60.3679 234.204 60.0837 236.598 59.5626C238.991 59.0415 241.572 58.1414 244.341 56.9097V65.1051C241.9 66.2895 239.413 67.0948 236.926 67.6159C234.392 68.137 231.529 68.3738 228.291 68.3738ZM226.461 26.7334C223.27 26.7334 220.736 27.7282 218.812 29.7653C216.888 31.8023 215.762 34.7867 215.386 38.6713H236.785C236.738 34.7394 235.8 31.7549 233.97 29.7653C232.186 27.7756 229.652 26.7334 226.461 26.7334Z" fill="black"/>
<path d="M274.187 60.2258C276.627 60.2258 279.068 59.8468 281.508 59.0415V66.6684C280.382 67.1422 278.974 67.5685 277.237 67.9001C275.501 68.2317 273.671 68.3738 271.794 68.3738C262.314 68.3738 257.574 63.305 257.574 53.2146V27.5861H251.145V23.1331L258.044 19.438L261.469 9.3477H267.664V19.9118H281.085V27.5861H267.664V53.0725C267.664 55.4885 268.274 57.2887 269.494 58.473C270.62 59.6573 272.216 60.2258 274.187 60.2258Z" fill="black"/>
<path d="M291.128 43.4085C291.128 35.8289 292.067 28.6757 293.991 22.0909C295.915 15.4588 298.683 9.67931 302.297 4.65782H309.899C306.473 10.0583 303.846 16.0746 302.015 22.8015C300.185 29.481 299.293 36.35 299.293 43.3612C299.293 50.3723 300.185 57.1466 302.015 63.7313C303.846 70.3161 306.473 76.2377 309.852 81.5434H302.344C298.73 76.664 295.962 70.9793 294.038 64.4419C292.114 57.8572 291.128 50.8934 291.128 43.4085Z" fill="#96CCF3"/>
<path d="M338.713 43.4085C338.713 50.9407 337.774 57.9992 335.85 64.4893C333.926 70.9793 331.158 76.664 327.544 81.496H320.036C323.461 76.1429 326.042 70.174 327.873 63.6366C329.703 57.0992 330.594 50.3249 330.594 43.3138C330.594 36.3026 329.703 29.4336 327.873 22.7541C325.996 16.0746 323.368 10.0583 319.942 4.61045H327.544C331.158 9.63193 333.926 15.4588 335.85 22.0909C337.774 28.7704 338.713 35.8289 338.713 43.4085Z" fill="#96CCF3"/>
</svg>
