<?xml version="1.0" encoding="UTF-8" standalone="no"?><!-- Generator: Gravit.io --><svg xmlns="http://www.w3.org/2000/svg" xmlns:xlink="http://www.w3.org/1999/xlink" style="isolation:isolate" viewBox="-11.26 61.035 245.203 74.285" width="245.203pt" height="74.285pt"><defs><clipPath id="_clipPath_ybpT1yLMSsRMZbBooskULdETxzuMkC8b"><rect x="-11.26" y="61.035" width="245.203" height="74.285"/></clipPath></defs><g clip-path="url(#_clipPath_ybpT1yLMSsRMZbBooskULdETxzuMkC8b)"><path d=" M 12.47 108.707 L 12.47 108.707 L 12.47 108.707 Q 12.47 106.07 10.484 104.611 L 10.484 104.611 L 10.484 104.611 Q 8.498 103.152 3.558 102.098 L 3.558 102.098 L 3.558 102.098 Q -1.381 101.043 -4.282 99.566 L -4.282 99.566 L -4.282 99.566 Q -7.182 98.09 -8.571 96.051 L -8.571 96.051 L -8.571 96.051 Q -9.959 94.012 -9.959 91.199 L -9.959 91.199 L -9.959 91.199 Q -9.959 86.523 -6.004 83.289 L -6.004 83.289 L -6.004 83.289 Q -2.049 80.055 4.103 80.055 L 4.103 80.055 L 4.103 80.055 Q 10.572 80.055 14.597 83.395 L 14.597 83.395 L 14.597 83.395 Q 18.623 86.734 18.623 91.938 L 18.623 91.938 L 12.084 91.938 L 12.084 91.938 Q 12.084 89.266 9.816 87.332 L 9.816 87.332 L 9.816 87.332 Q 7.548 85.398 4.103 85.398 L 4.103 85.398 L 4.103 85.398 Q 0.552 85.398 -1.452 86.945 L -1.452 86.945 L -1.452 86.945 Q -3.455 88.492 -3.455 90.988 L -3.455 90.988 L -3.455 90.988 Q -3.455 93.344 -1.592 94.539 L -1.592 94.539 L -1.592 94.539 Q 0.271 95.734 5.14 96.824 L 5.14 96.824 L 5.14 96.824 Q 10.009 97.914 13.033 99.426 L 13.033 99.426 L 13.033 99.426 Q 16.056 100.938 17.515 103.064 L 17.515 103.064 L 17.515 103.064 Q 18.974 105.191 18.974 108.25 L 18.974 108.25 L 18.974 108.25 Q 18.974 113.348 14.896 116.424 L 14.896 116.424 L 14.896 116.424 Q 10.818 119.5 4.314 119.5 L 4.314 119.5 L 4.314 119.5 Q -0.256 119.5 -3.772 117.883 L -3.772 117.883 L -3.772 117.883 Q -7.287 116.266 -9.274 113.365 L -9.274 113.365 L -9.274 113.365 Q -11.26 110.465 -11.26 107.09 L -11.26 107.09 L -4.756 107.09 L -4.756 107.09 Q -4.58 110.359 -2.137 112.275 L -2.137 112.275 L -2.137 112.275 Q 0.306 114.191 4.314 114.191 L 4.314 114.191 L 4.314 114.191 Q 8.005 114.191 10.238 112.697 L 10.238 112.697 L 10.238 112.697 Q 12.47 111.203 12.47 108.707 Z  M 29.513 64.797 L 29.513 118.797 L 23.009 118.797 L 23.009 64.797 L 29.513 64.797 L 29.513 64.797 Z  M 33.197 99.883 L 33.197 99.426 L 33.197 99.426 Q 33.197 93.836 35.394 89.371 L 35.394 89.371 L 35.394 89.371 Q 37.591 84.906 41.511 82.48 L 41.511 82.48 L 41.511 82.48 Q 45.431 80.055 50.459 80.055 L 50.459 80.055 L 50.459 80.055 Q 58.228 80.055 63.027 85.434 L 63.027 85.434 L 63.027 85.434 Q 67.826 90.813 67.826 99.742 L 67.826 99.742 L 67.826 100.199 L 67.826 100.199 Q 67.826 105.754 65.699 110.166 L 65.699 110.166 L 65.699 110.166 Q 63.572 114.578 59.617 117.039 L 59.617 117.039 L 59.617 117.039 Q 55.662 119.5 50.529 119.5 L 50.529 119.5 L 50.529 119.5 Q 42.795 119.5 37.996 114.121 L 37.996 114.121 L 37.996 114.121 Q 33.197 108.742 33.197 99.883 L 33.197 99.883 L 33.197 99.883 Z  M 39.736 100.199 L 39.736 100.199 L 39.736 100.199 Q 39.736 106.527 42.671 110.359 L 42.671 110.359 L 42.671 110.359 Q 45.607 114.191 50.529 114.191 L 50.529 114.191 L 50.529 114.191 Q 55.486 114.191 58.404 110.307 L 58.404 110.307 L 58.404 110.307 Q 61.322 106.422 61.322 99.426 L 61.322 99.426 L 61.322 99.426 Q 61.322 93.168 58.351 89.283 L 58.351 89.283 L 58.351 89.283 Q 55.38 85.398 50.459 85.398 L 50.459 85.398 L 50.459 85.398 Q 45.642 85.398 42.689 89.23 L 42.689 89.23 L 42.689 89.23 Q 39.736 93.063 39.736 100.199 Z  M 73.338 80.758 L 83.005 109.973 L 92.427 80.758 L 99.072 80.758 L 85.431 118.797 L 80.474 118.797 L 66.693 80.758 L 73.338 80.758 L 73.338 80.758 Z  M 100.33 80.758 L 106.482 80.758 L 106.693 85.539 L 106.693 85.539 Q 111.052 80.055 118.084 80.055 L 118.084 80.055 L 118.084 80.055 Q 130.142 80.055 130.248 93.66 L 130.248 93.66 L 130.248 118.797 L 123.744 118.797 L 123.744 93.625 L 123.744 93.625 Q 123.709 89.512 121.863 87.543 L 121.863 87.543 L 121.863 87.543 Q 120.017 85.574 116.115 85.574 L 116.115 85.574 L 116.115 85.574 Q 112.951 85.574 110.56 87.262 L 110.56 87.262 L 110.56 87.262 Q 108.17 88.949 106.834 91.691 L 106.834 91.691 L 106.834 118.797 L 100.33 118.797 L 100.33 80.758 L 100.33 80.758 Z  M 150.841 119.5 L 150.841 119.5 L 150.841 119.5 Q 143.107 119.5 138.255 114.42 L 138.255 114.42 L 138.255 114.42 Q 133.404 109.34 133.404 100.832 L 133.404 100.832 L 133.404 99.637 L 133.404 99.637 Q 133.404 93.977 135.566 89.529 L 135.566 89.529 L 135.566 89.529 Q 137.728 85.082 141.613 82.568 L 141.613 82.568 L 141.613 82.568 Q 145.498 80.055 150.033 80.055 L 150.033 80.055 L 150.033 80.055 Q 157.451 80.055 161.564 84.941 L 161.564 84.941 L 161.564 84.941 Q 165.677 89.828 165.677 98.934 L 165.677 98.934 L 165.677 101.641 L 139.908 101.641 L 139.908 101.641 Q 140.048 107.266 143.195 110.729 L 143.195 110.729 L 143.195 110.729 Q 146.341 114.191 151.193 114.191 L 151.193 114.191 L 151.193 114.191 Q 154.638 114.191 157.029 112.785 L 157.029 112.785 L 157.029 112.785 Q 159.42 111.379 161.213 109.059 L 161.213 109.059 L 165.185 112.152 L 165.185 112.152 Q 160.404 119.5 150.841 119.5 Z  M 150.033 85.398 L 150.033 85.398 L 150.033 85.398 Q 146.095 85.398 143.423 88.264 L 143.423 88.264 L 143.423 88.264 Q 140.752 91.129 140.119 96.297 L 140.119 96.297 L 159.173 96.297 L 159.173 95.805 L 159.173 95.805 Q 158.892 90.848 156.502 88.123 L 156.502 88.123 L 156.502 88.123 Q 154.111 85.398 150.033 85.398 Z  M 170.521 71.547 L 177.025 71.547 L 177.025 80.758 L 184.127 80.758 L 184.127 85.785 L 177.025 85.785 L 177.025 109.375 L 177.025 109.375 Q 177.025 111.66 177.974 112.803 L 177.974 112.803 L 177.974 112.803 Q 178.923 113.945 181.209 113.945 L 181.209 113.945 L 181.209 113.945 Q 182.334 113.945 184.302 113.523 L 184.302 113.523 L 184.302 118.797 L 184.302 118.797 Q 181.736 119.5 179.31 119.5 L 179.31 119.5 L 179.31 119.5 Q 174.951 119.5 172.736 116.863 L 172.736 116.863 L 172.736 116.863 Q 170.521 114.227 170.521 109.375 L 170.521 109.375 L 170.521 85.785 L 163.595 85.785 L 163.595 80.758 L 170.521 80.758 L 170.521 71.547 L 170.521 71.547 Z " fill="rgb(0,0,0)"/><path d=" M 194.076 98.02 L 194.076 98.02 L 194.076 98.02 Q 194.076 90.074 196.203 82.762 L 196.203 82.762 L 196.203 82.762 Q 198.33 75.449 202.548 69.473 L 202.548 69.473 L 202.548 69.473 Q 206.767 63.496 211.302 61.035 L 211.302 61.035 L 212.638 65.324 L 212.638 65.324 Q 207.505 69.262 204.218 77.348 L 204.218 77.348 L 204.218 77.348 Q 200.931 85.434 200.615 95.453 L 200.615 95.453 L 200.58 98.441 L 200.58 98.441 Q 200.58 112.012 205.537 121.996 L 205.537 121.996 L 205.537 121.996 Q 208.525 127.973 212.638 131.348 L 212.638 131.348 L 211.302 135.32 L 211.302 135.32 Q 206.627 132.719 202.373 126.602 L 202.373 126.602 L 202.373 126.602 Q 194.076 114.648 194.076 98.02 Z  M 233.943 98.371 L 233.943 98.371 L 233.943 98.371 Q 233.943 106.211 231.886 113.4 L 231.886 113.4 L 231.886 113.4 Q 229.83 120.59 225.593 126.672 L 225.593 126.672 L 225.593 126.672 Q 221.357 132.754 216.716 135.32 L 216.716 135.32 L 215.345 131.348 L 215.345 131.348 Q 220.759 127.199 224.046 118.463 L 224.046 118.463 L 224.046 118.463 Q 227.334 109.727 227.404 99.074 L 227.404 99.074 L 227.404 97.949 L 227.404 97.949 Q 227.404 90.566 225.857 84.221 L 225.857 84.221 L 225.857 84.221 Q 224.31 77.875 221.55 72.848 L 221.55 72.848 L 221.55 72.848 Q 218.791 67.82 215.345 65.008 L 215.345 65.008 L 216.716 61.035 L 216.716 61.035 Q 221.357 63.602 225.558 69.613 L 225.558 69.613 L 225.558 69.613 Q 229.759 75.625 231.851 82.867 L 231.851 82.867 L 231.851 82.867 Q 233.943 90.109 233.943 98.371 Z " fill="rgb(189,189,189)"/></g></svg>