<svg width="225" height="122" viewBox="0 0 225 122" fill="none" xmlns="http://www.w3.org/2000/svg">
<path d="M0.30957 52.616H11.2688L20.9054 79.5656C22.3697 83.4021 23.3145 87.0017 23.8341 90.4118C23.8341 90.4118 24.9206 86.9069 25.5819 84.6809C26.2433 82.4548 29.8806 71.7507 36.4939 52.616H47.4059L27.0936 106.515C23.409 116.414 17.268 121.34 8.62347 121.34C6.40328 121.34 4.23033 121.103 2.10462 120.63V112.625C3.61623 112.957 5.36404 113.146 7.3008 113.146C12.1663 113.146 15.5675 110.304 17.5515 104.668L19.2993 100.216L0.30957 52.616Z" fill="black"/>
<path d="M80.5198 100.169L78.1579 93.5379C75.8904 96.4271 73.5758 98.4163 71.2611 99.4583C68.9464 100.5 65.9704 101.021 62.3331 101.021C57.6566 101.021 54.0192 99.7425 51.4211 97.2323C48.823 94.722 47.5004 91.1224 47.5004 86.5282C47.5004 81.6024 49.2954 77.9081 52.9327 75.4452C56.5701 72.9349 62.0969 71.6088 69.5133 71.3719L77.6855 71.1351V68.5775C77.6855 65.5463 76.9769 63.2728 75.5598 61.7572C74.1426 60.2416 71.9697 59.4838 68.9937 59.4838C66.5845 59.4838 64.2226 59.8627 62.0025 60.5731C59.7823 61.2836 57.6093 62.1361 55.5781 63.1307L52.3186 55.8842C54.8695 54.558 57.7038 53.516 60.7743 52.8055C63.8447 52.0951 66.7263 51.7635 69.4188 51.7635C75.4653 51.7635 80.0002 53.0897 83.0706 55.7421C86.1411 58.3944 87.7 62.515 87.7 68.1512V100.216H80.5198V100.169ZM65.4981 93.3011C69.1826 93.3011 72.1114 92.2591 74.3316 90.2225C76.5518 88.1859 77.6382 85.2967 77.6382 81.6024V77.4818L71.5445 77.7186C66.7735 77.9081 63.3251 78.6659 61.1994 80.0868C59.0265 81.5077 57.94 83.6864 57.94 86.6229C57.94 88.7542 58.5541 90.3646 59.8295 91.5487C61.1049 92.6854 62.9945 93.3011 65.4981 93.3011Z" fill="black"/>
<path d="M120.672 51.7161C122.703 51.7161 124.357 51.8582 125.679 52.1423L124.687 61.5676C123.27 61.2361 121.759 61.0466 120.247 61.0466C116.232 61.0466 112.925 62.3728 110.422 65.0251C107.918 67.6775 106.69 71.0876 106.69 75.303V100.169H96.628V52.616H104.517L106.359 60.9993C107.918 58.1575 109.996 55.9314 112.5 54.2263C115.051 52.5686 117.743 51.7161 120.672 51.7161Z" fill="black"/>
<path d="M173.154 52.616V58.1575L165.029 59.6731C165.785 60.6677 166.399 61.8992 166.871 63.3674C167.343 64.8357 167.58 66.3987 167.58 68.009C167.58 72.9348 165.879 76.7712 162.525 79.5656C159.171 82.3601 154.495 83.781 148.59 83.781C147.078 83.781 145.708 83.6863 144.48 83.4494C142.307 84.7756 141.221 86.386 141.221 88.1858C141.221 89.2751 141.74 90.0803 142.732 90.6486C143.724 91.217 145.614 91.4538 148.354 91.4538H156.62C161.864 91.4538 165.832 92.5905 168.524 94.8166C171.264 97.0427 172.587 100.263 172.587 104.479C172.587 109.878 170.367 114.046 165.926 116.935C161.486 119.872 155.109 121.34 146.7 121.34C140.229 121.34 135.316 120.203 131.915 117.883C128.514 115.609 126.813 112.341 126.813 108.078C126.813 105.142 127.758 102.679 129.6 100.69C131.442 98.7004 134.041 97.3269 137.347 96.5217C136.025 95.9533 134.891 95.0061 134.041 93.7273C133.19 92.4485 132.718 91.1223 132.718 89.7014C132.718 87.9016 133.237 86.4333 134.229 85.2019C135.221 83.9704 136.733 82.739 138.67 81.5549C136.213 80.5129 134.229 78.7605 132.671 76.3923C131.159 73.9768 130.356 71.1824 130.356 67.9617C130.356 62.7991 131.962 58.8206 135.221 55.9788C138.481 53.137 143.11 51.7161 149.109 51.7161C150.432 51.7161 151.849 51.8108 153.314 52.0002C154.778 52.1897 155.912 52.3792 156.62 52.5686H173.154V52.616ZM135.883 107.557C135.883 109.736 136.875 111.394 138.812 112.578C140.748 113.762 143.535 114.33 147.078 114.33C152.558 114.33 156.668 113.525 159.36 111.962C162.053 110.399 163.375 108.268 163.375 105.663C163.375 103.579 162.62 102.111 161.155 101.258C159.691 100.405 156.951 99.9318 152.936 99.9318H145.33C142.449 99.9318 140.134 100.595 138.434 101.968C136.733 103.389 135.883 105.237 135.883 107.557ZM140.181 68.009C140.181 70.9929 140.937 73.2663 142.496 74.8767C144.008 76.487 146.228 77.2922 149.062 77.2922C154.92 77.2922 157.801 74.1662 157.801 67.9143C157.801 64.8357 157.093 62.4202 155.628 60.7624C154.164 59.1047 151.991 58.2522 149.062 58.2522C146.133 58.2522 143.913 59.1047 142.449 60.7624C140.937 62.3728 140.181 64.7883 140.181 68.009Z" fill="black"/>
<path d="M177.594 52.616H188.553L198.19 79.5656C199.654 83.4021 201.449 90.4118 201.449 90.4118C201.685 88.8488 202.158 86.9069 202.866 84.6809C203.575 82.4548 207.165 71.7507 213.778 52.616H224.69L204.378 106.515C200.693 116.414 194.552 121.34 185.908 121.34C183.688 121.34 181.515 121.103 179.389 120.63V112.625C180.901 112.957 182.648 113.146 184.585 113.146C189.451 113.146 192.852 110.304 194.836 104.668L196.584 100.216L177.594 52.616Z" fill="black"/>
<path d="M195.308 42.575L201.449 39.4964L118.688 2.88458L112.075 0.0427856L105.509 2.88458L23.8813 39.449L30.0223 42.575L67.9545 25.5242L106.406 42.575L112.594 39.4964L74.4261 22.635L112.075 5.72637L195.308 42.575Z" fill="#96CCF3"/>
</svg>
