<?xml version="1.0" encoding="UTF-8" standalone="no"?><!-- Generator: Gravit.io --><svg xmlns="http://www.w3.org/2000/svg" xmlns:xlink="http://www.w3.org/1999/xlink" style="isolation:isolate" viewBox="83.773 -32 149.207 106.16" width="149.207pt" height="106.16pt"><defs><clipPath id="_clipPath_clvFkMG9jrbJdoAsUeZaPRdp84nquXSV"><rect x="83.773" y="-32" width="149.207" height="106.16"/></clipPath></defs><g clip-path="url(#_clipPath_clvFkMG9jrbJdoAsUeZaPRdp84nquXSV)"><path d=" M 90.875 20.758 L 100.367 49.27 L 109.227 20.758 L 116.188 20.758 L 100.895 64.668 L 100.895 64.668 Q 97.344 74.16 89.609 74.16 L 89.609 74.16 L 88.379 74.055 L 85.953 73.598 L 85.953 68.324 L 87.711 68.465 L 87.711 68.465 Q 91.016 68.465 92.861 67.129 L 92.861 67.129 L 92.861 67.129 Q 94.707 65.793 95.902 62.242 L 95.902 62.242 L 97.344 58.375 L 83.773 20.758 L 90.875 20.758 L 90.875 20.758 Z  M 146.766 58.797 L 139.945 58.797 L 139.945 58.797 Q 139.383 57.672 139.031 54.789 L 139.031 54.789 L 139.031 54.789 Q 134.496 59.5 128.203 59.5 L 128.203 59.5 L 128.203 59.5 Q 122.578 59.5 118.975 56.318 L 118.975 56.318 L 118.975 56.318 Q 115.371 53.137 115.371 48.25 L 115.371 48.25 L 115.371 48.25 Q 115.371 42.309 119.889 39.021 L 119.889 39.021 L 119.889 39.021 Q 124.406 35.734 132.598 35.734 L 132.598 35.734 L 138.926 35.734 L 138.926 32.746 L 138.926 32.746 Q 138.926 29.336 136.887 27.314 L 136.887 27.314 L 136.887 27.314 Q 134.848 25.293 130.875 25.293 L 130.875 25.293 L 130.875 25.293 Q 127.395 25.293 125.039 27.051 L 125.039 27.051 L 125.039 27.051 Q 122.684 28.809 122.684 31.305 L 122.684 31.305 L 116.145 31.305 L 116.145 31.305 Q 116.145 28.457 118.166 25.803 L 118.166 25.803 L 118.166 25.803 Q 120.188 23.148 123.65 21.602 L 123.65 21.602 L 123.65 21.602 Q 127.113 20.055 131.262 20.055 L 131.262 20.055 L 131.262 20.055 Q 137.836 20.055 141.563 23.342 L 141.563 23.342 L 141.563 23.342 Q 145.289 26.629 145.43 32.395 L 145.43 32.395 L 145.43 49.902 L 145.43 49.902 Q 145.43 55.141 146.766 58.234 L 146.766 58.234 L 146.766 58.797 L 146.766 58.797 Z  M 129.152 53.84 L 129.152 53.84 L 129.152 53.84 Q 132.211 53.84 134.953 52.258 L 134.953 52.258 L 134.953 52.258 Q 137.695 50.676 138.926 48.145 L 138.926 48.145 L 138.926 40.34 L 133.828 40.34 L 133.828 40.34 Q 121.875 40.34 121.875 47.336 L 121.875 47.336 L 121.875 47.336 Q 121.875 50.395 123.914 52.117 L 123.914 52.117 L 123.914 52.117 Q 125.953 53.84 129.152 53.84 Z  M 169.012 20.547 L 169.012 26.594 L 169.012 26.594 Q 167.535 26.348 165.813 26.348 L 165.813 26.348 L 165.813 26.348 Q 159.414 26.348 157.129 31.797 L 157.129 31.797 L 157.129 58.797 L 150.625 58.797 L 150.625 20.758 L 156.953 20.758 L 157.059 25.152 L 157.059 25.152 Q 160.258 20.055 166.129 20.055 L 166.129 20.055 L 166.129 20.055 Q 168.027 20.055 169.012 20.547 L 169.012 20.547 L 169.012 20.547 Z  M 167.773 39.461 L 167.773 39.461 L 167.773 39.461 Q 167.773 30.566 171.887 25.311 L 171.887 25.311 L 171.887 25.311 Q 176 20.055 182.785 20.055 L 182.785 20.055 L 182.785 20.055 Q 189.746 20.055 193.648 24.977 L 193.648 24.977 L 193.965 20.758 L 199.906 20.758 L 199.906 57.883 L 199.906 57.883 Q 199.906 65.266 195.529 69.52 L 195.529 69.52 L 195.529 69.52 Q 191.152 73.773 183.77 73.773 L 183.77 73.773 L 183.77 73.773 Q 179.656 73.773 175.719 72.016 L 175.719 72.016 L 175.719 72.016 Q 171.781 70.258 169.707 67.199 L 169.707 67.199 L 173.082 63.297 L 173.082 63.297 Q 177.266 68.465 183.313 68.465 L 183.313 68.465 L 183.313 68.465 Q 188.059 68.465 190.713 65.793 L 190.713 65.793 L 190.713 65.793 Q 193.367 63.121 193.367 58.27 L 193.367 58.27 L 193.367 55 L 193.367 55 Q 189.465 59.5 182.715 59.5 L 182.715 59.5 L 182.715 59.5 Q 176.035 59.5 171.904 54.121 L 171.904 54.121 L 171.904 54.121 Q 167.773 48.742 167.773 39.461 Z  M 174.313 40.199 L 174.313 40.199 L 174.313 40.199 Q 174.313 46.633 176.949 50.307 L 176.949 50.307 L 176.949 50.307 Q 179.586 53.98 184.332 53.98 L 184.332 53.98 L 184.332 53.98 Q 190.484 53.98 193.367 48.391 L 193.367 48.391 L 193.367 31.023 L 193.367 31.023 Q 190.379 25.574 184.402 25.574 L 184.402 25.574 L 184.402 25.574 Q 179.656 25.574 176.984 29.266 L 176.984 29.266 L 176.984 29.266 Q 174.313 32.957 174.313 40.199 Z  M 207.668 20.758 L 217.16 49.27 L 226.02 20.758 L 232.98 20.758 L 217.688 64.668 L 217.688 64.668 Q 214.137 74.16 206.402 74.16 L 206.402 74.16 L 205.172 74.055 L 202.746 73.598 L 202.746 68.324 L 204.504 68.465 L 204.504 68.465 Q 207.809 68.465 209.654 67.129 L 209.654 67.129 L 209.654 67.129 Q 211.5 65.793 212.695 62.242 L 212.695 62.242 L 214.137 58.375 L 200.566 20.758 L 207.668 20.758 L 207.668 20.758 Z " fill="rgb(0,0,0)"/><path d=" M 118.41 -4.98 C 117.64 -5.38 117.06 -6.06 116.8 -6.88 C 116.53 -7.7 119.225 -7.13 119.625 -7.9 C 120.015 -8.66 120.18 -9.005 121 -9.275 C 121.82 -9.535 120.6 -11.16 121.37 -10.77 L 158.44 8.24 C 159.2 8.63 159.78 9.31 160.05 10.13 C 160.31 10.96 160.24 11.85 159.85 12.61 C 159.45 13.38 158.77 13.96 157.95 14.22 C 157.13 14.49 156.24 14.42 155.47 14.02 L 118.41 -4.98 Z " fill="rgb(144,202,249)"/><path d=" M 88.422 13.99 C 87.687 14.4 86.826 14.49 86.023 14.25 C 85.23 14 84.553 13.44 84.156 12.68 C 83.76 11.93 83.663 11.04 83.905 10.21 C 84.137 9.38 84.679 8.69 85.414 8.28 L 157.021 -32 L 231.297 8.25 C 232.032 8.65 232.593 9.34 232.835 10.16 C 233.087 10.99 233.009 11.88 232.622 12.64 C 232.235 13.4 231.568 13.98 230.775 14.23 C 229.982 14.49 229.121 14.41 228.376 14.01 L 157.079 -24.63 L 88.422 13.99 Z " fill="rgb(144,202,249)"/></g></svg>